<svg xmlns="http://www.w3.org/2000/svg" xmlns:xlink="http://www.w3.org/1999/xlink" viewBox="0 0 270.78 270.33"><defs><style>.cls-1{fill:url(#Dégradé_sans_nom_78);}.cls-2{fill:#fff;}</style><linearGradient id="Dégradé_sans_nom_78" x1="673.53" y1="270.33" x2="673.53" gradientTransform="matrix(-1, 0, 0, 1, 808.92, 0)" gradientUnits="userSpaceOnUse"><stop offset="0.21" stop-color="#1e1a49"/><stop offset="0.41" stop-color="#2c2557"/><stop offset="0.67" stop-color="#352d61"/><stop offset="1" stop-color="#382f64"/></linearGradient></defs><title>chaticon-arsp</title><g id="Calque_2" data-name="Calque 2"><g id="Calque_1-2" data-name="Calque 1"><path class="cls-1" d="M0,131.11a117.18,117.18,0,0,0,1,14.5s0,.11,0,.17a126.88,126.88,0,0,0,21.89,59.85A125.36,125.36,0,0,0,40.38,226.2l.84.79.47.44,0,0,.69.65.74.67.64.58c33,29.37,71,32.56,87.12,32.84l.84,0c1.48,0,3,0,4.5,0a134.08,134.08,0,0,0,36.91-4.72,14.21,14.21,0,0,1,10.19.88c7.67,3.57,15.47,6.88,23.21,10.31,9.83,4.35,17.35-.51,17.57-11.29.14-7.11.36-14.22.57-21.33a11.38,11.38,0,0,1,3.94-8.29c23.18-21.23,36.72-47.47,40.82-78.5l.06-.42c0-.18.05-.35.06-.52a134.43,134.43,0,0,0,1.19-17.28c0-2.24,0-5.82-.39-10.38,0-.45-.07-.91-.11-1.37,0,0,0-.1,0-.14,0-.3,0-.62-.08-.93s-.07-.77-.12-1.17-.05-.5-.08-.76v0l-.18-1.54-.09-.79c0-.27-.07-.53-.11-.8s-.09-.72-.14-1.09c0-.11,0-.21,0-.32l-.12-.8c-.05-.29-.09-.58-.13-.87a2.17,2.17,0,0,0,0-.25c-.06-.38-.12-.76-.19-1.14s-.1-.64-.15-1h0c-.06-.31-.12-.63-.17-1s-.06-.39-.1-.58c-3.62-20-13-47.51-37.17-70.68C194.74.45,149.85-.07,135.39,0,121.81.07,80.2.91,44.2,32.71c-1,.9-2,1.8-3,2.71l-.1.09c-28,26.41-36.94,58.84-39.79,78.57a0,0,0,0,1,0,0A121.38,121.38,0,0,0,0,131.11Z"/><circle class="cls-2" cx="187.45" cy="130.9" r="17.91"/><circle class="cls-2" cx="133.93" cy="130.9" r="17.91"/><circle class="cls-2" cx="80.41" cy="130.9" r="17.91"/></g></g></svg>