<svg xmlns="http://www.w3.org/2000/svg" xmlns:xlink="http://www.w3.org/1999/xlink" viewBox="0 0 310.14 395.35"><defs><style>.cls-1{fill:url(#Dégradé_sans_nom_29);}.cls-2{fill:#fff;}</style><linearGradient id="Dégradé_sans_nom_29" x1="155.07" y1="395.35" x2="155.07" gradientUnits="userSpaceOnUse"><stop offset="0.27" stop-color="#29265b"/><stop offset="1" stop-color="#494177"/></linearGradient></defs><title>cupboard-arsp</title><g id="Calque_2" data-name="Calque 2"><g id="Calque_1-2" data-name="Calque 1"><rect class="cls-1" width="310.14" height="395.35" rx="29.97"/><path class="cls-2" d="M287.46,197.68q0,71.65,0,143.33c0,15.15-9.07,27.11-23.12,30.62a34.37,34.37,0,0,1-8.14.95q-101.05.07-202.1,0c-18.08,0-31.4-13.28-31.41-31.44q0-143.52,0-287C22.69,36,36,22.73,54.11,22.73q100.86,0,201.72,0c18.33,0,31.6,13.16,31.62,31.62Q287.51,126,287.46,197.68ZM40.07,212.5c-.09,2.06-.24,3.9-.24,5.74q0,50.14,0,100.28c0,19.18,12.8,31.92,31.87,31.92,55.38,0,110.76-.34,166.14.17,18.64.18,33-14.05,32.76-32.43-.52-33.8-.15-67.6-.14-101.41V212.5Zm230.17-29.74c.08-1.42.21-2.64.21-3.85,0-34.19.05-68.37,0-102.56,0-17.84-13.18-30.71-31.15-30.71H71.21c-18.29,0-31.38,13-31.4,31.3q0,50.91,0,101.81v4Z"/><path class="cls-2" d="M205.78,293.4H182.83c-.08-1.25-.16-2.33-.22-3.42-.26-5.19-3.36-8.44-8.48-8.48q-19.81-.12-39.64,0c-5.31,0-8.41,3.35-8.58,8.74,0,1-.09,1.94-.15,3.12H104.09c.23-5.1,0-10.22.82-15.16,1-5.65,5.79-8.87,12.16-8.88q32.72-.06,65.44,0c3.74,0,7.48-.06,11.22,0,6.57.17,11.46,4.5,12,11C206.06,284.51,205.78,288.75,205.78,293.4Z"/><path class="cls-2" d="M125.8,126.3H104.73c0-5-.5-9.89.13-14.62.79-5.92,5.59-9.58,12-9.6q38.36-.15,76.71,0c7.47,0,12.19,5.2,12.31,12.69.06,3.72,0,7.44,0,11.43H182.71c0-1.4.07-2.62,0-3.83-.33-4.77-3.43-8-8.2-8q-20.19-.14-40.4,0c-4.52,0-7.57,3.11-8.08,7.71C125.87,123.45,125.87,124.8,125.8,126.3Z"/></g></g></svg>