<svg xmlns="http://www.w3.org/2000/svg" viewBox="0 0 126.27 167.14"><defs><style>.cls-1{fill:#34c058;}.cls-2{fill:#fff;}.cls-3{fill:#383838;}.cls-4{fill:#33c158;}</style></defs><title>Fichier-excel</title><g id="Calque_2" data-name="Calque 2"><g id="Calque_1-2" data-name="Calque 1"><path class="cls-1" d="M112.75,42.34l-30-29.63L74.35,4.47A15.53,15.53,0,0,0,63.46,0H27.53A27.53,27.53,0,0,0,0,27.53V139.6a27.54,27.54,0,0,0,27.53,27.54H98.74a27.54,27.54,0,0,0,27.53-27.53v-78a14.15,14.15,0,0,0-4.22-10.08Z"/><path class="cls-2" d="M105.73,55.24,77,55.13a6.84,6.84,0,0,1-6.8-6.82l-.06-28.66Z"/><path class="cls-3" d="M112.75,138.51a15.12,15.12,0,0,1-15.12,15.12h-69a15.12,15.12,0,0,1-15.12-15.12V27.84A15.12,15.12,0,0,1,28.66,12.71h27.7v37.2a19,19,0,0,0,19,19h37.43Z"/><path class="cls-2" d="M112.74,69.27v69.64A15.13,15.13,0,0,1,97.61,154h-69a15.12,15.12,0,0,1-15.11-15.12V28.24A15.13,15.13,0,0,1,28.64,13.11H56.35v37.2a19,19,0,0,0,19,19Z"/><path class="cls-4" d="M38.32,115.91A2.07,2.07,0,0,1,40.41,118a2.09,2.09,0,0,1-3.56,1.47,2,2,0,0,1-.61-1.47,2,2,0,0,1,.61-1.47A2,2,0,0,1,38.32,115.91Z"/><path class="cls-4" d="M42.65,105.25h4.21l2.85,3.94,2.84-3.94h4.14l-4.9,6.8,5.54,7.64H53.12L49.69,115l-3.42,4.73H42.13l5.48-7.6Z"/><path class="cls-4" d="M58.78,99.67H62.4v20H58.78Z"/><path class="cls-4" d="M64.4,105.25h4.2l2.86,3.94,2.84-3.94h4.14l-4.91,6.8,5.55,7.64H74.87L71.44,115,68,119.69H63.88l5.48-7.6Z"/><path class="cls-4" d="M89.77,107.27l-2.25,2.24A3.8,3.8,0,0,0,85,108.16a1.52,1.52,0,0,0-1,.26.76.76,0,0,0-.34.64.8.8,0,0,0,.22.54,4.35,4.35,0,0,0,1.08.67l1.33.66A7.86,7.86,0,0,1,89.25,113a4.41,4.41,0,0,1-.63,5.74,5.4,5.4,0,0,1-3.79,1.28,6,6,0,0,1-5-2.46L82,115.17a5.44,5.44,0,0,0,1.5,1.2,3.35,3.35,0,0,0,1.52.46,1.79,1.79,0,0,0,1.15-.35,1,1,0,0,0,.44-.8c0-.55-.53-1.1-1.58-1.63l-1.22-.61q-3.51-1.77-3.51-4.42a3.82,3.82,0,0,1,1.33-2.93A4.77,4.77,0,0,1,85,104.88a5.89,5.89,0,0,1,2.65.61A6,6,0,0,1,89.77,107.27Z"/></g></g></svg>