<svg xmlns="http://www.w3.org/2000/svg" viewBox="0 0 126.27 167.14"><defs><style>.cls-1{fill:#fee183;}.cls-2{fill:#fff;}.cls-3{fill:#383838;}.cls-4{fill:#fee083;}</style></defs><title>Fichier-zip</title><g id="Calque_2" data-name="Calque 2"><g id="Calque_1-2" data-name="Calque 1"><path class="cls-1" d="M112.75,42.34l-30-29.63L74.35,4.47A15.53,15.53,0,0,0,63.46,0H27.53A27.53,27.53,0,0,0,0,27.53V139.6a27.54,27.54,0,0,0,27.53,27.54H98.74a27.54,27.54,0,0,0,27.53-27.53v-78a14.15,14.15,0,0,0-4.22-10.08Z"/><path class="cls-2" d="M105.73,55.24,77,55.13a6.84,6.84,0,0,1-6.8-6.82l-.06-28.66Z"/><path class="cls-3" d="M112.75,138.51a15.12,15.12,0,0,1-15.12,15.12h-69a15.12,15.12,0,0,1-15.12-15.12V27.84A15.12,15.12,0,0,1,28.66,12.71h27.7v37.2a19,19,0,0,0,19,19h37.43Z"/><path class="cls-2" d="M112.74,69.27v69.64A15.13,15.13,0,0,1,97.61,154h-69a15.12,15.12,0,0,1-15.11-15.12V28.24A15.13,15.13,0,0,1,28.64,13.11H56.35v37.2a19,19,0,0,0,19,19Z"/><path class="cls-4" d="M45.75,99.79H58.1l-7.27,16.68h6.8v3.74H45.15l7.24-16.58H45.75Z"/><path class="cls-4" d="M60.77,99.79h3.86v20.42H60.77Z"/><path class="cls-4" d="M69,99.79h4.12a13.59,13.59,0,0,1,4.82.62,4.88,4.88,0,0,1,2.33,2,6.15,6.15,0,0,1,.86,3.31A5.58,5.58,0,0,1,80,109.27a5.86,5.86,0,0,1-3,2,17.64,17.64,0,0,1-4.1.32v8.65H69Zm3.88,8h1.24a6.6,6.6,0,0,0,2-.21,1.83,1.83,0,0,0,.9-.69,2,2,0,0,0,.32-1.16,1.87,1.87,0,0,0-.91-1.73,5.24,5.24,0,0,0-2.47-.4h-1.1Z"/></g></g></svg>