<svg xmlns="http://www.w3.org/2000/svg" viewBox="0 0 126.27 167.14"><defs><style>.cls-1{fill:#378ffa;}.cls-2{fill:#fff;}.cls-3{fill:#383838;}</style></defs><title>Fichier-word</title><g id="Calque_2" data-name="Calque 2"><g id="Calque_1-2" data-name="Calque 1"><path class="cls-1" d="M112.75,42.34l-30-29.63L74.35,4.47A15.53,15.53,0,0,0,63.46,0H27.53A27.53,27.53,0,0,0,0,27.53V139.6a27.54,27.54,0,0,0,27.53,27.54H98.74a27.54,27.54,0,0,0,27.53-27.53v-78a14.15,14.15,0,0,0-4.22-10.08Z"/><path class="cls-2" d="M105.73,55.24,77,55.13a6.84,6.84,0,0,1-6.8-6.82l-.06-28.66Z"/><path class="cls-3" d="M112.75,138.51a15.12,15.12,0,0,1-15.12,15.12h-69a15.12,15.12,0,0,1-15.12-15.12V27.84A15.12,15.12,0,0,1,28.66,12.71h27.7v37.2a19,19,0,0,0,19,19h37.43Z"/><path class="cls-2" d="M112.74,69.27v69.64A15.13,15.13,0,0,1,97.61,154h-69a15.12,15.12,0,0,1-15.11-15.12V28.24A15.13,15.13,0,0,1,28.64,13.11H56.35v37.2a19,19,0,0,0,19,19Z"/><path class="cls-1" d="M30.39,115.91a2,2,0,0,1,1.47.61,2,2,0,0,1,.61,1.46,2.09,2.09,0,1,1-4.17,0,2,2,0,0,1,.61-1.46A2,2,0,0,1,30.39,115.91Z"/><path class="cls-1" d="M46.7,99.65h3.63v20H46.7v-1.53a7.31,7.31,0,0,1-2.13,1.46,6.14,6.14,0,0,1-2.32.44,6.44,6.44,0,0,1-4.85-2.17,7.6,7.6,0,0,1-2-5.41,7.78,7.78,0,0,1,2-5.49,6.32,6.32,0,0,1,4.8-2.14,6.1,6.1,0,0,1,2.45.5,6.66,6.66,0,0,1,2.11,1.47Zm-3.82,8.56a3.67,3.67,0,0,0-2.79,1.19,4.74,4.74,0,0,0,0,6.14,3.64,3.64,0,0,0,2.79,1.21,3.74,3.74,0,0,0,2.83-1.19,4.35,4.35,0,0,0,1.13-3.12,4.23,4.23,0,0,0-1.13-3.06A3.78,3.78,0,0,0,42.88,108.21Z"/><path class="cls-1" d="M60.79,104.86a7.71,7.71,0,0,1,3.85,1,7.36,7.36,0,0,1,2.81,2.78,7.64,7.64,0,0,1,0,7.61,7.35,7.35,0,0,1-2.77,2.79,7.65,7.65,0,0,1-3.87,1,7.24,7.24,0,0,1-5.31-2.21,7.67,7.67,0,0,1,.29-11A7.26,7.26,0,0,1,60.79,104.86Zm.06,3.42A3.72,3.72,0,0,0,58,109.46a4.17,4.17,0,0,0-1.12,3A4.26,4.26,0,0,0,58,115.53a4,4,0,0,0,5.65,0,4.67,4.67,0,0,0,0-6.07A3.78,3.78,0,0,0,60.85,108.28Z"/><path class="cls-1" d="M85.58,108.16l-3,1.66a5.2,5.2,0,0,0-1.68-1.23,5.1,5.1,0,0,0-1.95-.35,4.56,4.56,0,0,0-3.3,1.22,4.12,4.12,0,0,0-1.26,3.11,4,4,0,0,0,1.22,3,4.36,4.36,0,0,0,3.18,1.17,4.65,4.65,0,0,0,3.79-1.66l2.86,2a7.82,7.82,0,0,1-6.57,3,7.85,7.85,0,0,1-6-2.26,7.52,7.52,0,0,1,1.82-11.94,8.79,8.79,0,0,1,4.21-1,8.6,8.6,0,0,1,3.87.86A7.4,7.4,0,0,1,85.58,108.16Z"/><path class="cls-1" d="M97.7,107.26l-2.24,2.24A3.82,3.82,0,0,0,93,108.15a1.54,1.54,0,0,0-1,.26.77.77,0,0,0-.12,1.18,4.07,4.07,0,0,0,1.08.67l1.33.67A7.89,7.89,0,0,1,97.19,113a4.2,4.2,0,0,1,.78,2.53,4.15,4.15,0,0,1-1.42,3.21,5.39,5.39,0,0,1-3.79,1.29,6,6,0,0,1-5.05-2.47l2.23-2.43a5.29,5.29,0,0,0,1.5,1.2,3.26,3.26,0,0,0,1.52.46,1.79,1.79,0,0,0,1.15-.35,1,1,0,0,0,.44-.79c0-.56-.52-1.11-1.58-1.64l-1.22-.61q-3.51-1.77-3.51-4.43a3.85,3.85,0,0,1,1.32-2.93A4.81,4.81,0,0,1,93,104.86a5.93,5.93,0,0,1,2.65.62A5.79,5.79,0,0,1,97.7,107.26Z"/></g></g></svg>