<?xml version="1.0" encoding="UTF-8"?>
<svg id="Calque_2" data-name="Calque 2" xmlns="http://www.w3.org/2000/svg" viewBox="0 0 37.19 39.11">
  <defs>
    <style>
      .cls-1 {
        fill: #f7c575;
      }

      .cls-1, .cls-2, .cls-3 {
        stroke-width: 0px;
      }

      .cls-2 {
        fill: #f29e19;
      }

      .cls-3 {
        fill: #fff;
      }
    </style>
  </defs>
  <g id="Calque_1-2" data-name="Calque 1">
    <g>
      <path class="cls-2" d="m32.54,9.8v25.71c0,1.99-1.62,3.61-3.61,3.61H3.61c-2,0-3.61-1.62-3.61-3.61V3.61C0,1.62,1.62,0,3.61,0h19.13v9.8h9.8Z"/>
      <path class="cls-1" d="m22.75,0v9.8h9.8C29.28,6.53,26.01,3.26,22.75,0"/>
      <path class="cls-3" d="m27.64,17.2h-4.71c-.38,0-.69.31-.69.69,0,.38.31.69.69.69h4.71c.38,0,.69-.31.69-.69,0-.38-.31-.69-.69-.69"/>
      <path class="cls-3" d="m36.33,28.19c-3.16,0-6.31,0-9.47,0-.47,0-.86.38-.86.86s.38.86.86.86c3.16,0,6.31,0,9.47,0,.47,0,.86-.38.86-.86s-.38-.86-.86-.86h0Z"/>
    </g>
  </g>
</svg>