<?xml version="1.0" encoding="UTF-8"?>
<svg id="Calque_2" data-name="Calque 2" xmlns="http://www.w3.org/2000/svg" viewBox="0 0 34.52 39.11">
  <defs>
    <style>
      .cls-1 {
        fill: #23e66d;
      }

      .cls-1, .cls-2, .cls-3 {
        stroke-width: 0px;
      }

      .cls-2 {
        fill: #7bf0a7;
      }

      .cls-3 {
        fill: #fff;
      }
    </style>
  </defs>
  <g id="Calque_1-2" data-name="Calque 1">
    <g>
      <path class="cls-1" d="m32.54,9.8v25.71c0,1.99-1.62,3.61-3.61,3.61H3.61c-2,0-3.61-1.62-3.61-3.61V3.61C0,1.62,1.62,0,3.61,0h19.13v9.8h9.8Z"/>
      <path class="cls-2" d="m22.75,0v9.8h9.8c-3.27-3.27-6.53-6.53-9.8-9.8"/>
      <path class="cls-3" d="m25.37,19.82h0c-.5,0-.91-.41-.91-.91v-1.87c0-.5.41-.91.91-.91s.91.41.91.91v1.87c0,.5-.41.91-.91.91Z"/>
      <path class="cls-3" d="m33.44,29.34l.07.25-.07-.25h0s.07.25.07.25l-.07-.25s-2.03.52-4.68.52c-2.01,0-4.39-.3-6.57-1.29-1.09-.5-2.13-1.16-3.07-2.06-.94-.89-1.78-2.01-2.46-3.44-.2-.43-.72-.61-1.14-.4-.43.2-.61.72-.4,1.14.76,1.6,1.73,2.9,2.82,3.94,1.64,1.56,3.54,2.51,5.42,3.07,1.89.56,3.76.74,5.4.74,2.92,0,5.07-.56,5.12-.58.46-.12.73-.59.61-1.05-.12-.46-.59-.73-1.05-.61h0Z"/>
    </g>
  </g>
</svg>