<svg xmlns="http://www.w3.org/2000/svg" xmlns:xlink="http://www.w3.org/1999/xlink" viewBox="0 0 126.27 167.14"><defs><style>.cls-1{fill:url(#Dégradé_sans_nom_53);}.cls-2{fill:#fff;}.cls-3{fill:url(#Dégradé_sans_nom_99);}.cls-4,.cls-5{opacity:0.4;}.cls-4{fill:url(#Dégradé_sans_nom_97);}.cls-5{fill:url(#Dégradé_sans_nom_95);}.cls-6{fill:url(#Dégradé_sans_nom_90);}.cls-7{fill:url(#Dégradé_sans_nom_89);}</style><linearGradient id="Dégradé_sans_nom_53" x1="63.14" y1="167.14" x2="63.14" gradientUnits="userSpaceOnUse"><stop offset="0.2" stop-color="#6d5aa2"/><stop offset="1" stop-color="#8671b1"/></linearGradient><linearGradient id="Dégradé_sans_nom_99" x1="63.14" y1="167.14" x2="63.14" gradientUnits="userSpaceOnUse"><stop offset="0" stop-color="#382f64"/><stop offset="0.58" stop-color="#3a3267"/><stop offset="1" stop-color="#3f3970"/></linearGradient><linearGradient id="Dégradé_sans_nom_97" x1="63.14" y1="137.78" x2="63.14" y2="86.43" gradientUnits="userSpaceOnUse"><stop offset="0" stop-color="#382f64"/><stop offset="1" stop-color="#453e75"/></linearGradient><linearGradient id="Dégradé_sans_nom_95" x1="63.14" y1="122.51" x2="63.14" y2="91.59" gradientUnits="userSpaceOnUse"><stop offset="0.22" stop-color="#8f8bba"/><stop offset="0.67" stop-color="#928fc0"/><stop offset="1" stop-color="#9694c9"/></linearGradient><linearGradient id="Dégradé_sans_nom_90" x1="76.11" y1="109.47" x2="76.11" y2="99.04" gradientUnits="userSpaceOnUse"><stop offset="0.2" stop-color="#7673a2"/><stop offset="1" stop-color="#736fa1"/></linearGradient><linearGradient id="Dégradé_sans_nom_89" x1="63.14" y1="133" x2="63.14" y2="104.39" gradientUnits="userSpaceOnUse"><stop offset="0.2" stop-color="#464076"/><stop offset="1" stop-color="#736fa1"/></linearGradient></defs><title>pictureicon-arsp</title><g id="Calque_2" data-name="Calque 2"><g id="Calque_1-2" data-name="Calque 1"><path class="cls-1" d="M122.05,51.52l-9.3-9.18-30-29.63L74.35,4.47A15.5,15.5,0,0,0,63.46,0H27.53A27.53,27.53,0,0,0,0,27.53V139.6a27.54,27.54,0,0,0,27.53,27.54H98.74a27.54,27.54,0,0,0,27.53-27.53v-78A14.15,14.15,0,0,0,122.05,51.52Zm-16.32,3.72L77,55.13a6.84,6.84,0,0,1-6.8-6.82l-.06-28.66Zm7,83.27a15.12,15.12,0,0,1-15.12,15.12h-69a15.12,15.12,0,0,1-15.12-15.12V27.84A15.12,15.12,0,0,1,28.66,12.71h27.7v37.2a19,19,0,0,0,19,19h37.43Z"/><path class="cls-2" d="M112.75,68.87v69.64a15.12,15.12,0,0,1-15.12,15.12h-69a15.12,15.12,0,0,1-15.12-15.12V27.84A15.12,15.12,0,0,1,28.66,12.71h27.7v37.2a19,19,0,0,0,19,19Z"/><path class="cls-3" d="M122.05,51.52l-9.3-9.18-30-29.63L74.35,4.47A15.5,15.5,0,0,0,63.46,0H27.53A27.53,27.53,0,0,0,0,27.53V139.6a27.54,27.54,0,0,0,27.53,27.54H98.74a27.54,27.54,0,0,0,27.53-27.53v-78A14.15,14.15,0,0,0,122.05,51.52Zm-16.32,3.72L77,55.13a6.84,6.84,0,0,1-6.8-6.82l-.06-28.66Zm7,83.27a15.12,15.12,0,0,1-15.12,15.12h-69a15.12,15.12,0,0,1-15.12-15.12V27.84A15.12,15.12,0,0,1,28.66,12.71h27.7v37.2a19,19,0,0,0,19,19h37.43Z"/><path class="cls-2" d="M105.73,55.24,77,55.13a6.84,6.84,0,0,1-6.8-6.82l-.06-28.66Z"/><path class="cls-4" d="M84.09,86.43H42.18A10.16,10.16,0,0,0,32,96.59v31a10.16,10.16,0,0,0,10.16,10.16H84.09a10.16,10.16,0,0,0,10.16-10.16v-31A10.16,10.16,0,0,0,84.09,86.43Zm4.88,42a4.59,4.59,0,0,1-4.59,4.6H41.9a4.6,4.6,0,0,1-4.6-4.6V96.19a4.6,4.6,0,0,1,4.6-4.6H84.38A4.59,4.59,0,0,1,89,96.19Z"/><path class="cls-5" d="M84.38,91.59H41.9a4.6,4.6,0,0,0-4.6,4.6v21l9.41-11.06a4.86,4.86,0,0,1,7.32,0C57.93,109.93,66,120,66,120s2.19,3,5.13,0l4.52-4.51s3.28-2.74,6.22,0c1.86,1.72,5,4.91,7.09,7V96.19A4.59,4.59,0,0,0,84.38,91.59Zm-8.27,17.88a5.22,5.22,0,1,1,5.21-5.22A5.22,5.22,0,0,1,76.11,109.47Z"/><path class="cls-6" d="M81.32,104.25A5.22,5.22,0,1,1,76.11,99,5.22,5.22,0,0,1,81.32,104.25Z"/><path class="cls-7" d="M89,122.51v5.89a4.59,4.59,0,0,1-4.59,4.6H41.9a4.6,4.6,0,0,1-4.6-4.6V117.15l9.41-11.06a4.86,4.86,0,0,1,7.32,0C57.93,109.93,66,120,66,120s2.19,3,5.13,0l4.52-4.51s3.28-2.74,6.22,0C83.74,117.19,86.89,120.38,89,122.51Z"/></g></g></svg>