<svg xmlns="http://www.w3.org/2000/svg" xmlns:xlink="http://www.w3.org/1999/xlink" viewBox="0 0 782.84 716.33"><defs><style>.cls-1{isolation:isolate;}.cls-2{fill:#fff;}.cls-3{fill:#e2e2e2;}.cls-4{fill:#e3e3e3;}.cls-5{fill:#e4e4e4;}.cls-6{fill:#e5e5e5;}.cls-7{fill:#e6e6e6;}.cls-8{fill:#e7e7e7;}.cls-9{fill:#e8e8e8;}.cls-10{fill:#e9e9e9;}.cls-11{fill:#eaeaea;}.cls-12{fill:#ebebeb;}.cls-13{fill:#ececec;}.cls-14{fill:#ededed;}.cls-15{fill:#eee;}.cls-16{fill:#efefef;}.cls-17{fill:#f0f0f0;}.cls-18{fill:#f1f1f1;}.cls-19{fill:#f2f2f2;}.cls-20{fill:#f3f3f3;}.cls-21{fill:#f4f4f4;}.cls-22{fill:#f5f5f5;}.cls-23{fill:#f6f6f6;}.cls-24{fill:#f7f7f7;}.cls-25{fill:#f8f8f8;}.cls-26{fill:#f9f9f9;}.cls-27{fill:#fafafa;}.cls-28{fill:#fbfbfb;}.cls-29{fill:#fcfcfc;}.cls-30{fill:#fdfdfd;}.cls-31{fill:#fefefe;}.cls-32{fill:#353535;}.cls-33{fill:#e3e6e3;}.cls-34{fill:#222323;}.cls-35{fill:#48494a;}.cls-36{fill:#4d4d4f;}.cls-37{fill:#38393a;}.cls-38{fill:#7a7a7d;}.cls-39{fill:#8e8e91;}.cls-40{fill:#434345;}.cls-41{fill:#f1f1f2;}.cls-42{fill:#d8d8d8;}.cls-43{fill:#dbdbdb;}.cls-44{fill:#7f8081;}.cls-45{fill:url(#linear-gradient);}.cls-46{fill:#6d6e6f;}.cls-47{mix-blend-mode:soft-light;fill:url(#linear-gradient-2);}.cls-48{mix-blend-mode:hard-light;fill:url(#linear-gradient-3);}.cls-49{fill:#a7a7a7;}.cls-50{fill:#575759;opacity:0.21;mix-blend-mode:multiply;}</style><linearGradient id="linear-gradient" x1="570.57" y1="159.59" x2="570.57" y2="42.49" gradientTransform="translate(-34.83 440.77) rotate(0.1)" gradientUnits="userSpaceOnUse"><stop offset="0" stop-color="#009be3"/><stop offset="0.04" stop-color="#079ce2"/><stop offset="0.35" stop-color="#37a7de"/><stop offset="0.62" stop-color="#5aaedb"/><stop offset="0.85" stop-color="#6fb2d9"/><stop offset="0.99" stop-color="#77b4d8"/></linearGradient><linearGradient id="linear-gradient-2" x1="488.69" y1="93.3" x2="671.45" y2="93.3" gradientTransform="translate(-34.83 440.77) rotate(0.1)" gradientUnits="userSpaceOnUse"><stop offset="0" stop-color="#ef833a"/><stop offset="0.15" stop-color="#ec7e4a"/><stop offset="0.51" stop-color="#e5736d"/><stop offset="0.81" stop-color="#e16c82"/><stop offset="1" stop-color="#e06a8a"/></linearGradient><linearGradient id="linear-gradient-3" x1="488.69" y1="93.69" x2="672.98" y2="93.69" gradientTransform="translate(-34.83 440.77) rotate(0.1)" gradientUnits="userSpaceOnUse"><stop offset="0" stop-color="#ef833a"/><stop offset="0.35" stop-color="#ea7b53"/><stop offset="1" stop-color="#e06a8a"/></linearGradient></defs><title>printer</title><g class="cls-1"><g id="Calque_2" data-name="Calque 2"><g id="Object"><path class="cls-2" d="M263.21,539.63l412.3-243.14s40.78,18.62,44.34,67.52-23.12,93.77-23.12,93.77L308.08,680.91l-47.9-140.67Z"/><polygon class="cls-3" points="305.1 716.33 719.62 475.44 719.85 364.01 305.33 604.9 305.1 716.33"/><polygon class="cls-4" points="305.49 715.72 719.06 475.38 719.29 364.2 305.72 604.54 305.49 715.72"/><polygon class="cls-5" points="305.88 715.11 718.5 475.32 718.73 364.4 306.11 604.19 305.88 715.11"/><polygon class="cls-6" points="306.26 714.5 717.94 475.26 718.17 364.59 306.49 603.83 306.26 714.5"/><polygon class="cls-7" points="306.65 713.89 717.38 475.2 717.61 364.79 306.88 603.48 306.65 713.89"/><polygon class="cls-8" points="307.04 713.29 716.82 475.14 717.05 364.98 307.27 603.12 307.04 713.29"/><polygon class="cls-9" points="307.43 712.68 716.26 475.08 716.49 365.18 307.65 602.77 307.43 712.68"/><polygon class="cls-10" points="307.81 712.07 715.71 475.02 715.93 365.37 308.04 602.41 307.81 712.07"/><polygon class="cls-11" points="308.2 711.46 715.15 474.97 715.38 365.57 308.43 602.06 308.2 711.46"/><polygon class="cls-12" points="308.59 710.85 714.59 474.91 714.82 365.76 308.82 601.7 308.59 710.85"/><polygon class="cls-13" points="308.98 710.24 714.03 474.85 714.26 365.96 309.2 601.35 308.98 710.24"/><polygon class="cls-14" points="309.36 709.63 713.47 474.79 713.7 366.15 309.59 600.99 309.36 709.63"/><polygon class="cls-15" points="309.75 709.02 712.91 474.73 713.14 366.35 309.98 600.64 309.75 709.02"/><polygon class="cls-16" points="310.14 708.41 712.35 474.67 712.58 366.54 310.36 600.28 310.14 708.41"/><polygon class="cls-17" points="310.53 707.8 711.79 474.61 712.02 366.74 310.75 599.93 310.53 707.8"/><polygon class="cls-18" points="310.91 707.19 711.24 474.55 711.46 366.93 311.14 599.57 310.91 707.19"/><polygon class="cls-18" points="311.3 706.58 710.68 474.49 710.9 367.13 311.52 599.22 311.3 706.58"/><polygon class="cls-19" points="311.69 705.97 710.12 474.43 710.34 367.32 311.91 598.86 311.69 705.97"/><polygon class="cls-20" points="312.08 705.36 709.56 474.37 709.78 367.52 312.3 598.51 312.08 705.36"/><polygon class="cls-21" points="312.46 704.75 709 474.31 709.22 367.71 312.69 598.15 312.46 704.75"/><polygon class="cls-22" points="312.85 704.14 708.44 474.25 708.66 367.91 313.07 597.8 312.85 704.14"/><polygon class="cls-23" points="313.24 703.54 707.88 474.19 708.1 368.1 313.46 597.44 313.24 703.54"/><polygon class="cls-24" points="313.63 702.93 707.32 474.13 707.54 368.3 313.85 597.09 313.63 702.93"/><polygon class="cls-25" points="314.01 702.32 706.76 474.07 706.99 368.49 314.24 596.73 314.01 702.32"/><polygon class="cls-26" points="314.4 701.71 706.21 474.02 706.42 368.69 314.62 596.38 314.4 701.71"/><polygon class="cls-27" points="314.79 701.1 705.65 473.96 705.87 368.88 315.01 596.02 314.79 701.1"/><polygon class="cls-28" points="315.18 700.49 705.09 473.9 705.31 369.08 315.4 595.67 315.18 700.49"/><polygon class="cls-29" points="315.56 699.88 704.53 473.84 704.75 369.27 315.78 595.31 315.56 699.88"/><polygon class="cls-30" points="315.95 699.27 703.97 473.78 704.19 369.47 316.17 594.96 315.95 699.27"/><polygon class="cls-31" points="316.34 698.66 703.41 473.72 703.63 369.66 316.56 594.6 316.34 698.66"/><polygon class="cls-2" points="316.73 698.05 702.85 473.66 703.07 369.86 316.94 594.25 316.73 698.05"/><polygon class="cls-19" points="0.35 387.44 269.4 542.77 683.92 301.88 414.87 146.55 0.35 387.44"/><path class="cls-7" d="M719.52,359.87l.16-.1c-.11-1.48-.29-3-.53-4.46v0l0-.08c-.26-1.57-.55-3.1-.91-4.64-.28-1.16-.63-2.31-1-3.47-.12-.41-.21-.81-.34-1.21-.07-.24-.12-.48-.19-.71-.72-2.25-1.55-4.49-2.47-6.7-.06-.14-.16-.27-.23-.41A85,85,0,0,0,707.61,326c-.54-.86-1.07-1.67-1.63-2.5a81.88,81.88,0,0,0-8.43-10.63,3.2,3.2,0,0,0-.22-.27,67,67,0,0,0-5-4.72c-.25-.22-.52-.4-.77-.6s-.69-.54-1-.82c-.78-.61-1.55-1.26-2.35-1.83-1.28-.91-2.58-1.76-3.89-2.53h0c-.12-.06-.22-.16-.33-.22L269.4,542.77a55.39,55.39,0,0,1,6.6,4.58l1.05.81a72.69,72.69,0,0,1,6,5.59,83.37,83.37,0,0,1,8.42,10.63c.56.82,1.1,1.65,1.63,2.5a87.76,87.76,0,0,1,6.42,12.06,80.12,80.12,0,0,1,2.89,7.82c.12.4.22.81.33,1.21A68.5,68.5,0,0,1,304.6,596l0,.12a54.64,54.64,0,0,1,.7,8.74L719.85,364c0-1.4-.05-2.81-.17-4.24Z"/><path class="cls-8" d="M719.06,360l.17-.1c-.12-1.47-.3-3-.53-4.45v0a.38.38,0,0,0,0-.08c-.26-1.57-.55-3.1-.91-4.64-.28-1.15-.63-2.31-1-3.46-.11-.41-.21-.81-.33-1.22-.08-.24-.13-.47-.2-.71-.72-2.24-1.54-4.48-2.46-6.69-.06-.14-.17-.26-.23-.41a88.56,88.56,0,0,0-6.39-12.05c-.54-.85-1.07-1.66-1.64-2.5a83,83,0,0,0-8.4-10.62c-.08-.08-.14-.19-.22-.27-1.63-1.66-3.28-3.25-5-4.72-.25-.21-.51-.39-.76-.6l-1-.81c-.78-.62-1.55-1.26-2.35-1.83-1.27-.91-2.57-1.75-3.88-2.53l0,0c-.12-.07-.22-.16-.33-.23L269.73,542.58a59,59,0,0,1,6.88,4.78c.34.27.69.52,1,.8a70.91,70.91,0,0,1,6,5.59,81.51,81.51,0,0,1,8.4,10.63c.56.82,1.1,1.65,1.63,2.49a87,87,0,0,1,6.4,12,80.92,80.92,0,0,1,2.89,7.81c.12.41.21.81.33,1.22a64.18,64.18,0,0,1,1.87,8.06.5.5,0,0,1,0,.12,53.39,53.39,0,0,1,.7,8.73l413.53-240.6c0-1.39,0-2.9-.16-4.33Z"/><path class="cls-9" d="M718.61,360.2l.17-.1c-.12-1.48-.3-3-.53-4.46v0l0-.08c-.25-1.57-.54-3.1-.9-4.64-.28-1.15-.63-2.31-1-3.46-.12-.4-.22-.8-.34-1.21-.07-.24-.12-.47-.2-.71-.71-2.24-1.53-4.48-2.46-6.69-.05-.14-.16-.26-.22-.4a88.49,88.49,0,0,0-6.38-12.05c-.54-.85-1.06-1.66-1.63-2.49a82.82,82.82,0,0,0-8.38-10.62c-.08-.08-.14-.19-.22-.27-1.62-1.65-3.27-3.24-5-4.71-.25-.21-.51-.39-.76-.6s-.69-.54-1-.81c-.77-.62-1.54-1.26-2.34-1.83q-1.9-1.37-3.87-2.53l0,0c-.11-.06-.22-.16-.33-.23L270.07,542.38a63.84,63.84,0,0,1,7.14,5c.34.27.69.52,1,.8a72.34,72.34,0,0,1,6,5.58,82.13,82.13,0,0,1,8.38,10.62c.55.82,1.1,1.65,1.63,2.49a89.09,89.09,0,0,1,6.38,12,79.69,79.69,0,0,1,2.88,7.8c.12.4.21.81.33,1.21a64.53,64.53,0,0,1,1.86,8.06l0,.12a54.49,54.49,0,0,1,.7,8.72L718.94,364.51c0-1.39-.05-3-.16-4.41Z"/><path class="cls-10" d="M718.16,360.36l.16-.1c-.11-1.47-.29-2.95-.52-4.45v0l0-.09c-.25-1.56-.54-3.09-.9-4.62-.28-1.16-.63-2.31-1-3.46-.12-.41-.21-.81-.34-1.22-.07-.23-.12-.47-.19-.7q-1.08-3.36-2.46-6.68c0-.14-.16-.27-.22-.41a88.25,88.25,0,0,0-6.36-12c-.54-.85-1.07-1.65-1.63-2.49a82.67,82.67,0,0,0-8.36-10.6c-.08-.09-.14-.19-.22-.27-1.62-1.65-3.27-3.24-5-4.71-.24-.21-.51-.39-.76-.6s-.68-.54-1-.81c-.78-.62-1.54-1.26-2.34-1.83q-1.9-1.37-3.86-2.52h0c-.11-.06-.21-.16-.33-.22L270.4,542.19a70.22,70.22,0,0,1,7.41,5.18c.34.28.7.53,1,.81a68.85,68.85,0,0,1,5.94,5.58,81.22,81.22,0,0,1,8.36,10.61c.56.82,1.1,1.65,1.63,2.49a88.2,88.2,0,0,1,6.37,12,82.27,82.27,0,0,1,2.87,7.8c.12.4.21.81.33,1.21a64,64,0,0,1,1.86,8.05.5.5,0,0,0,0,.12,54.27,54.27,0,0,1,.7,8.71l411.55-240c0-1.39,0-3.08-.16-4.51Z"/><path class="cls-11" d="M717.7,360.52l.17-.09c-.12-1.48-.3-3-.53-4.45v0s0-.08,0-.08c-.25-1.56-.55-3.09-.9-4.62-.27-1.15-.63-2.31-1-3.46-.12-.4-.21-.8-.34-1.21-.07-.24-.12-.47-.19-.71-.71-2.23-1.53-4.46-2.45-6.67-.05-.14-.16-.27-.22-.41a88,88,0,0,0-6.35-12c-.53-.85-1.06-1.66-1.62-2.49a82.53,82.53,0,0,0-8.34-10.6c-.08-.08-.14-.19-.22-.27-1.62-1.65-3.26-3.24-5-4.7-.24-.21-.5-.4-.75-.6s-.69-.54-1-.81c-.78-.62-1.54-1.26-2.33-1.83q-1.9-1.36-3.86-2.52h0c-.11-.06-.21-.15-.32-.22L270.73,542a75.66,75.66,0,0,1,7.68,5.39c.34.28.7.53,1,.81a70.2,70.2,0,0,1,5.93,5.57,83.23,83.23,0,0,1,8.34,10.6q.82,1.23,1.62,2.49a87.44,87.44,0,0,1,6.35,12,81.28,81.28,0,0,1,2.86,7.79c.13.41.22.81.34,1.21a65.72,65.72,0,0,1,1.85,8,.5.5,0,0,1,0,.12,54.15,54.15,0,0,1,.7,8.7L718,365c0-1.39,0-3.17-.15-4.59Z"/><path class="cls-12" d="M717.25,360.69l.17-.1c-.12-1.47-.3-2.95-.53-4.44v0a.38.38,0,0,0,0-.08c-.26-1.56-.55-3.09-.9-4.62-.27-1.15-.63-2.3-1-3.45-.11-.41-.21-.81-.33-1.21-.07-.24-.12-.47-.2-.71q-1.07-3.36-2.44-6.67c-.06-.14-.16-.26-.22-.41a88.31,88.31,0,0,0-6.33-12c-.54-.85-1.06-1.66-1.62-2.49a83,83,0,0,0-8.32-10.59c-.08-.08-.14-.19-.22-.26-1.61-1.65-3.25-3.24-4.94-4.7-.25-.22-.51-.4-.76-.6s-.68-.54-1-.81c-.77-.62-1.53-1.26-2.32-1.83q-1.9-1.37-3.85-2.52l0,0-.32-.23-411,238.85a82.54,82.54,0,0,1,7.95,5.6c.34.27.69.53,1,.81a70,70,0,0,1,5.91,5.57,82.37,82.37,0,0,1,8.33,10.59c.55.82,1.09,1.64,1.61,2.48a88.49,88.49,0,0,1,6.34,12,80,80,0,0,1,2.85,7.78c.13.4.22.81.34,1.21a65.57,65.57,0,0,1,1.85,8,.5.5,0,0,0,0,.12,55.32,55.32,0,0,1,.7,8.7L717.56,365.27c0-1.39,0-3.25-.14-4.68Z"/><path class="cls-13" d="M716.8,360.85l.16-.09c-.11-1.47-.29-2.95-.52-4.44v0a.38.38,0,0,0,0-.08c-.26-1.56-.55-3.09-.9-4.62-.27-1.15-.63-2.3-.95-3.45-.12-.4-.22-.8-.34-1.21-.07-.23-.12-.47-.19-.7q-1.06-3.36-2.44-6.67c-.06-.14-.16-.26-.22-.4a87.66,87.66,0,0,0-6.32-12c-.53-.85-1-1.65-1.61-2.48a82.07,82.07,0,0,0-8.3-10.58c-.08-.09-.14-.19-.22-.27-1.61-1.65-3.24-3.23-4.93-4.7-.25-.21-.51-.39-.76-.6s-.68-.53-1-.81c-.77-.61-1.53-1.25-2.32-1.82-1.26-.9-2.54-1.75-3.84-2.52l0,0c-.11-.06-.21-.16-.32-.23L271.4,541.6a86.51,86.51,0,0,1,8.22,5.8c.34.27.69.53,1,.81a66.85,66.85,0,0,1,5.91,5.56,82.76,82.76,0,0,1,8.3,10.58c.55.82,1.09,1.65,1.61,2.49a87.61,87.61,0,0,1,6.33,12,79,79,0,0,1,2.84,7.78c.13.4.22.8.34,1.21a65.21,65.21,0,0,1,1.84,8,.74.74,0,0,1,0,.12,54.15,54.15,0,0,1,.7,8.7L717.1,365.53c0-1.39,0-3.35-.14-4.77Z"/><path class="cls-14" d="M716.34,361l.17-.1c-.12-1.47-.29-2.95-.52-4.43v0l0-.08c-.25-1.56-.54-3.08-.89-4.61-.27-1.15-.62-2.3-1-3.45-.12-.41-.21-.8-.34-1.21-.07-.24-.12-.47-.19-.7q-1.07-3.36-2.43-6.66c-.06-.14-.16-.27-.22-.41a88.42,88.42,0,0,0-6.3-12c-.53-.85-1.06-1.66-1.61-2.49a82.4,82.4,0,0,0-8.29-10.57c-.07-.08-.13-.19-.21-.27-1.61-1.64-3.24-3.23-4.92-4.69-.25-.21-.51-.39-.75-.6s-.68-.53-1-.81c-.77-.61-1.53-1.25-2.31-1.82q-1.89-1.35-3.83-2.51h0c-.11-.06-.21-.16-.32-.22l-409.61,238a93.1,93.1,0,0,1,8.49,6c.34.27.69.53,1,.81a68,68,0,0,1,5.89,5.55,81.81,81.81,0,0,1,8.29,10.58c.55.82,1.08,1.64,1.6,2.48a88,88,0,0,1,6.31,12,77.25,77.25,0,0,1,2.84,7.77c.13.4.22.81.33,1.21a63.43,63.43,0,0,1,1.84,8l0,.12a55.26,55.26,0,0,1,.69,8.69L716.65,365.78c0-1.39,0-3.44-.14-4.86Z"/><path class="cls-15" d="M715.89,361.18l.17-.09c-.12-1.47-.3-2.95-.52-4.43v0l0-.08c-.25-1.56-.54-3.08-.9-4.61-.26-1.15-.61-2.3-.94-3.45-.12-.4-.21-.8-.33-1.2-.08-.24-.12-.47-.2-.71q-1-3.35-2.42-6.65c-.06-.14-.16-.27-.22-.41a87.13,87.13,0,0,0-6.29-12c-.53-.85-1.05-1.65-1.6-2.48a82.46,82.46,0,0,0-8.27-10.57c-.07-.08-.13-.18-.21-.26-1.6-1.65-3.23-3.23-4.91-4.69-.24-.21-.5-.39-.75-.6s-.68-.53-1-.81c-.77-.61-1.53-1.25-2.31-1.82-1.25-.9-2.53-1.74-3.82-2.51h0c-.11-.06-.21-.15-.32-.22L272.07,541.21a99.1,99.1,0,0,1,8.75,6.21c.34.27.69.53,1,.81a66.41,66.41,0,0,1,5.88,5.55A80.74,80.74,0,0,1,296,564.34c.55.82,1.08,1.65,1.6,2.48a87.89,87.89,0,0,1,6.3,12,78.59,78.59,0,0,1,2.83,7.76c.13.4.22.81.33,1.21a65.48,65.48,0,0,1,1.84,8,.5.5,0,0,0,0,.12,55.14,55.14,0,0,1,.69,8.68L716.19,366c0-1.38,0-3.52-.13-4.94Z"/><path class="cls-16" d="M715.44,361.35l.16-.1c-.11-1.47-.29-2.94-.52-4.43v0l0-.08c-.25-1.56-.54-3.08-.9-4.61-.26-1.15-.61-2.29-.94-3.44-.11-.41-.21-.8-.33-1.21-.07-.24-.12-.47-.19-.7-.71-2.23-1.51-4.45-2.42-6.65-.06-.14-.16-.26-.22-.41a88.59,88.59,0,0,0-6.27-12c-.53-.85-1-1.65-1.6-2.48a82.12,82.12,0,0,0-8.25-10.55c-.08-.08-.13-.19-.21-.27-1.6-1.64-3.22-3.22-4.9-4.68-.24-.21-.5-.4-.75-.6s-.67-.53-1-.81c-.76-.61-1.52-1.25-2.3-1.82q-1.87-1.35-3.81-2.51l0,0-.32-.23L272.4,541a105.56,105.56,0,0,1,9,6.42c.34.27.69.52,1,.8a70.93,70.93,0,0,1,5.87,5.55,82.35,82.35,0,0,1,8.24,10.56c.54.82,1.08,1.64,1.6,2.48a88.07,88.07,0,0,1,6.28,12,81.14,81.14,0,0,1,2.82,7.76c.13.4.22.8.33,1.2a63.62,63.62,0,0,1,1.83,8,.5.5,0,0,1,0,.12,52.73,52.73,0,0,1,.69,8.67L715.73,366.29c0-1.39,0-3.62-.13-5Z"/><path class="cls-17" d="M715,361.51l.17-.09c-.12-1.47-.29-2.94-.52-4.43v0a.55.55,0,0,0,0-.09c-.25-1.55-.54-3.07-.9-4.6-.26-1.14-.61-2.29-.94-3.44-.11-.4-.21-.8-.33-1.2-.07-.24-.12-.47-.19-.7-.7-2.23-1.51-4.45-2.41-6.65-.06-.14-.16-.26-.22-.4a87.41,87.41,0,0,0-6.26-12c-.52-.84-1-1.65-1.59-2.47a82.88,82.88,0,0,0-8.23-10.55c-.08-.08-.13-.19-.21-.27-1.59-1.64-3.21-3.22-4.89-4.68-.24-.21-.5-.39-.74-.59s-.68-.54-1-.81c-.76-.61-1.52-1.25-2.3-1.82q-1.86-1.35-3.8-2.51l0,0c-.11-.06-.2-.16-.32-.23L272.73,540.81c2.21,1.3,7.2,5,9.3,6.63.33.27.68.52,1,.8a66.11,66.11,0,0,1,5.85,5.55,81.14,81.14,0,0,1,8.22,10.54c.55.82,1.08,1.64,1.6,2.48a87.3,87.3,0,0,1,6.26,12,79.27,79.27,0,0,1,2.82,7.75c.12.4.22.81.33,1.21a64.85,64.85,0,0,1,1.83,8,.5.5,0,0,0,0,.12,54.89,54.89,0,0,1,.69,8.66l404.61-238c0-1.38,0-3.71-.12-5.12Z"/><path class="cls-18" d="M714.53,361.68l.17-.1c-.12-1.46-.29-2.94-.52-4.42v0l0-.08c-.24-1.55-.53-3.07-.89-4.6-.26-1.14-.61-2.29-.93-3.43-.12-.4-.21-.8-.33-1.21-.08-.23-.12-.46-.2-.7-.69-2.22-1.5-4.44-2.4-6.63-.06-.14-.16-.27-.22-.41a87.59,87.59,0,0,0-6.24-11.95c-.53-.85-1-1.65-1.59-2.48a81.65,81.65,0,0,0-8.21-10.53c-.08-.09-.13-.19-.21-.27-1.59-1.64-3.21-3.22-4.88-4.68-.24-.21-.49-.39-.74-.59s-.67-.54-1-.81c-.76-.61-1.52-1.25-2.29-1.82-1.25-.9-2.51-1.74-3.8-2.5h0c-.11-.06-.2-.16-.31-.22l-406.8,236.4c2.2,1.29,7.47,5.15,9.56,6.83.34.27.68.52,1,.8a68.84,68.84,0,0,1,5.84,5.54,82.58,82.58,0,0,1,8.2,10.54c.54.82,1.07,1.64,1.59,2.47a87.7,87.7,0,0,1,6.25,12,81.87,81.87,0,0,1,2.81,7.75c.12.4.21.8.33,1.2a65.21,65.21,0,0,1,1.82,8,.5.5,0,0,1,0,.12,54.79,54.79,0,0,1,.69,8.66L714.82,366.79c0-1.38,0-3.79-.12-5.21Z"/><path class="cls-19" d="M714.08,361.84l.16-.09c-.11-1.47-.29-2.94-.51-4.42v0l0-.08c-.25-1.55-.53-3.07-.89-4.59-.26-1.15-.61-2.29-.93-3.44-.12-.4-.21-.79-.33-1.2-.07-.24-.12-.47-.19-.7q-1.05-3.34-2.4-6.63c-.06-.14-.16-.27-.22-.41a86.88,86.88,0,0,0-6.23-11.94c-.52-.85-1-1.65-1.59-2.47a81.45,81.45,0,0,0-8.18-10.53c-.08-.08-.13-.19-.21-.27-1.59-1.64-3.2-3.21-4.86-4.67-.24-.21-.5-.39-.75-.6s-.67-.53-1-.8c-.76-.61-1.51-1.25-2.28-1.82-1.24-.9-2.51-1.73-3.78-2.5h0c-.11-.06-.21-.15-.32-.22l-406.1,236c2.2,1.29,7.75,5.36,9.83,7,.34.27.68.52,1,.8a67.16,67.16,0,0,1,5.82,5.54,81.35,81.35,0,0,1,8.18,10.52c.55.82,1.08,1.64,1.59,2.48a86.31,86.31,0,0,1,6.23,11.94,80.7,80.7,0,0,1,2.81,7.74c.12.4.21.8.33,1.2a64.65,64.65,0,0,1,1.82,8,.5.5,0,0,0,0,.12,54.64,54.64,0,0,1,.68,8.65L714.36,367.05c0-1.38,0-3.89-.12-5.3Z"/><path class="cls-20" d="M713.63,362l.16-.1c-.12-1.46-.29-2.93-.52-4.41v0l0-.08c-.25-1.55-.53-3.07-.89-4.59-.26-1.14-.61-2.29-.93-3.43-.11-.4-.21-.8-.33-1.2-.07-.24-.12-.47-.19-.7q-1-3.34-2.39-6.63c-.06-.14-.16-.26-.22-.4a87.87,87.87,0,0,0-6.21-11.94c-.53-.84-1-1.64-1.59-2.47a81.22,81.22,0,0,0-8.16-10.52c-.08-.08-.14-.18-.21-.26-1.58-1.64-3.19-3.22-4.85-4.67-.24-.21-.5-.39-.74-.6s-.67-.53-1-.8c-.76-.62-1.51-1.25-2.28-1.81-1.24-.91-2.5-1.74-3.77-2.51l0,0-.32-.23L273.73,540.22c2.19,1.29,8,5.57,10.1,7.25.34.27.68.52,1,.8a68.39,68.39,0,0,1,5.81,5.53,81.22,81.22,0,0,1,8.16,10.52c.54.81,1.07,1.64,1.58,2.47a86.7,86.7,0,0,1,6.22,11.93,79.7,79.7,0,0,1,2.8,7.73c.12.4.21.81.33,1.21a65.87,65.87,0,0,1,1.81,8,.5.5,0,0,1,0,.12,53.36,53.36,0,0,1,.68,8.64L713.9,367.3c0-1.38,0-4-.11-5.39Z"/><path class="cls-20" d="M713.17,362.17l.17-.1c-.12-1.46-.29-2.92-.52-4.4v0a.38.38,0,0,0,0-.08c-.25-1.55-.53-3.07-.89-4.59-.26-1.14-.6-2.28-.93-3.43-.11-.4-.2-.79-.33-1.2-.07-.23-.11-.46-.19-.7-.69-2.22-1.49-4.43-2.38-6.62-.06-.14-.16-.26-.22-.4a87,87,0,0,0-6.2-11.92c-.52-.85-1-1.65-1.58-2.47a81.19,81.19,0,0,0-8.14-10.51c-.08-.09-.14-.19-.21-.27-1.58-1.64-3.18-3.21-4.84-4.66-.24-.21-.5-.39-.74-.6s-.67-.53-1-.8c-.75-.62-1.5-1.25-2.27-1.81q-1.86-1.35-3.76-2.51l0,0c-.11-.06-.21-.16-.32-.22L274.07,540c2.18,1.29,8.29,5.77,10.37,7.45.33.27.67.52,1,.8a65.18,65.18,0,0,1,5.79,5.52,80.12,80.12,0,0,1,8.14,10.51c.54.82,1.07,1.64,1.58,2.47a88.23,88.23,0,0,1,6.21,11.92c1.06,2.56,2,5.14,2.79,7.73.12.4.21.8.33,1.2a64.39,64.39,0,0,1,1.8,8l0,.12a55.59,55.59,0,0,1,.68,8.63L713.44,367.55c0-1.38,0-4.06-.1-5.48Z"/><path class="cls-21" d="M712.72,362.34l.16-.1c-.11-1.46-.29-2.93-.51-4.41v0a.38.38,0,0,0,0-.08c-.25-1.55-.54-3.07-.89-4.59-.26-1.14-.6-2.28-.92-3.42-.12-.4-.21-.8-.33-1.2-.07-.24-.12-.47-.19-.7-.69-2.22-1.49-4.43-2.38-6.61-.06-.14-.16-.27-.22-.41a87.34,87.34,0,0,0-6.18-11.91c-.52-.85-1-1.64-1.58-2.47a81.64,81.64,0,0,0-8.12-10.5c-.08-.08-.14-.19-.21-.27-1.58-1.63-3.18-3.21-4.83-4.66-.24-.21-.49-.39-.74-.59s-.66-.53-1-.81c-.75-.61-1.5-1.24-2.27-1.8-1.23-.9-2.48-1.74-3.75-2.5h0c-.11-.06-.21-.16-.32-.22l-404,234.76c2.18,1.29,8.57,6,10.64,7.66.33.27.67.52,1,.8a65,65,0,0,1,5.78,5.52,81,81,0,0,1,8.12,10.5c.54.81,1.06,1.63,1.58,2.47a86.76,86.76,0,0,1,6.18,11.91,77.58,77.58,0,0,1,2.79,7.72c.12.4.21.8.32,1.2a63.89,63.89,0,0,1,1.81,8,.5.5,0,0,0,0,.12,54.27,54.27,0,0,1,.68,8.62L713,367.81c0-1.38,0-4.16-.1-5.57Z"/><path class="cls-22" d="M712.27,362.5l.16-.1c-.12-1.45-.29-2.92-.51-4.4v0l0-.08c-.24-1.55-.53-3.06-.88-4.58-.26-1.14-.6-2.28-.92-3.42-.12-.41-.21-.8-.33-1.2-.07-.24-.12-.47-.19-.7-.69-2.22-1.48-4.43-2.37-6.61-.06-.14-.16-.26-.22-.41a87.16,87.16,0,0,0-6.17-11.9c-.52-.84-1-1.64-1.57-2.46a81.51,81.51,0,0,0-8.1-10.5c-.08-.08-.14-.18-.21-.26-1.57-1.64-3.17-3.21-4.82-4.66-.24-.21-.49-.39-.73-.59s-.67-.53-1-.81c-.76-.61-1.5-1.24-2.27-1.8-1.23-.9-2.48-1.74-3.74-2.5l0,0-.32-.23L274.73,539.64c2.18,1.28,8.85,6.18,10.91,7.86.33.27.67.52,1,.8a64.75,64.75,0,0,1,5.76,5.51,81.47,81.47,0,0,1,8.11,10.49c.53.82,1.06,1.64,1.57,2.47a87.16,87.16,0,0,1,6.17,11.9,80.89,80.89,0,0,1,2.78,7.71c.12.4.21.8.32,1.2a64.5,64.5,0,0,1,1.8,8,.6.6,0,0,1,0,.12,54.36,54.36,0,0,1,.68,8.62L712.53,368.06c0-1.38,0-4.24-.1-5.66Z"/><path class="cls-23" d="M711.81,362.67l.16-.1c-.11-1.46-.28-2.92-.51-4.4v0l0-.08c-.24-1.54-.53-3.05-.88-4.57-.26-1.14-.6-2.28-.92-3.42-.11-.4-.21-.79-.33-1.2-.07-.23-.11-.46-.19-.7-.68-2.21-1.48-4.42-2.36-6.6-.06-.14-.16-.26-.22-.4a87,87,0,0,0-6.15-11.9c-.52-.84-1-1.64-1.57-2.46a81.17,81.17,0,0,0-8.08-10.48c-.08-.09-.14-.19-.21-.27-1.57-1.63-3.16-3.2-4.81-4.65-.23-.21-.49-.39-.73-.59s-.66-.53-1-.81c-.75-.61-1.49-1.24-2.26-1.8-1.22-.9-2.47-1.73-3.73-2.5l0,0c-.11-.07-.21-.16-.31-.23l-402.59,234c2.17,1.29,9.12,6.39,11.17,8.07l1,.79a66.17,66.17,0,0,1,5.75,5.52,80.49,80.49,0,0,1,8.08,10.48c.54.81,1.06,1.63,1.57,2.46a88.72,88.72,0,0,1,6.16,11.89c1.05,2.55,2,5.12,2.77,7.71.12.4.21.8.32,1.2a66.22,66.22,0,0,1,1.8,8,.43.43,0,0,0,0,.12,54.24,54.24,0,0,1,.67,8.62L712.07,368.31c0-1.37,0-4.33-.1-5.74Z"/><path class="cls-24" d="M711.36,362.83l.16-.1c-.11-1.45-.28-2.92-.51-4.39v0a.54.54,0,0,0,0-.08c-.25-1.54-.53-3.05-.88-4.57-.26-1.14-.6-2.28-.92-3.41-.11-.4-.2-.8-.32-1.2-.07-.24-.12-.47-.19-.7-.68-2.21-1.48-4.42-2.36-6.6-.06-.14-.16-.26-.22-.4A87.88,87.88,0,0,0,700,329.46c-.51-.85-1-1.64-1.56-2.46a81.94,81.94,0,0,0-8.06-10.48c-.08-.08-.14-.19-.21-.26-1.57-1.64-3.15-3.21-4.79-4.65-.24-.21-.49-.39-.74-.6s-.66-.53-1-.8c-.75-.61-1.49-1.24-2.25-1.8q-1.85-1.35-3.73-2.5l0,0c-.11-.06-.2-.16-.31-.22L275.4,539.24c2.16,1.29,9.39,6.6,11.45,8.28l1,.79a65.94,65.94,0,0,1,5.74,5.51,82.54,82.54,0,0,1,8.06,10.47c.53.82,1.05,1.63,1.56,2.46a86.86,86.86,0,0,1,6.14,11.89,79.66,79.66,0,0,1,2.77,7.7c.12.39.21.8.32,1.19a64.29,64.29,0,0,1,1.79,8,.5.5,0,0,1,0,.12,55.34,55.34,0,0,1,.68,8.61L711.61,368.57c0-1.38,0-4.43-.09-5.84Z"/><path class="cls-25" d="M710.91,363l.16-.1c-.12-1.46-.29-2.92-.51-4.39v0a.38.38,0,0,0,0-.08c-.25-1.54-.53-3.05-.88-4.57-.26-1.13-.6-2.27-.92-3.41-.11-.4-.2-.79-.32-1.2-.07-.23-.12-.46-.19-.69-.68-2.21-1.47-4.42-2.36-6.59,0-.14-.15-.27-.21-.41a88.19,88.19,0,0,0-6.12-11.87c-.52-.84-1-1.64-1.56-2.46a81.56,81.56,0,0,0-8.05-10.47c-.07-.08-.13-.18-.2-.26-1.56-1.63-3.15-3.2-4.78-4.65-.24-.2-.49-.38-.73-.59s-.66-.53-1-.8c-.74-.61-1.48-1.24-2.24-1.8q-1.83-1.35-3.72-2.49h0c-.11-.06-.2-.15-.31-.22L275.73,539.05c2.16,1.28,9.67,6.8,11.72,8.47.33.27.67.52,1,.8a67.11,67.11,0,0,1,5.72,5.5,80.61,80.61,0,0,1,8,10.47q.81,1.22,1.56,2.46a87.7,87.7,0,0,1,6.13,11.87c1.05,2.54,2,5.11,2.76,7.69.12.4.21.8.32,1.2a65.52,65.52,0,0,1,1.78,7.94l0,.12a55.28,55.28,0,0,1,.67,8.6l395.7-235.35c0-1.37,0-4.51-.08-5.92Z"/><path class="cls-26" d="M710.45,363.16l.16-.1c-.11-1.45-.28-2.91-.5-4.38v0l0-.08c-.24-1.54-.52-3.05-.87-4.56-.26-1.14-.59-2.28-.91-3.41-.12-.4-.21-.8-.33-1.2-.07-.23-.11-.46-.18-.7q-1-3.31-2.36-6.58c0-.14-.15-.26-.21-.4a87,87,0,0,0-6.11-11.87c-.51-.84-1-1.63-1.55-2.45a81.54,81.54,0,0,0-8-10.46c-.07-.08-.13-.19-.2-.27-1.56-1.63-3.14-3.19-4.77-4.64-.24-.21-.49-.39-.73-.59s-.66-.53-1-.8c-.75-.61-1.48-1.24-2.24-1.8q-1.83-1.35-3.71-2.49l0,0c-.11-.07-.2-.16-.31-.23L276.06,538.85c2.16,1.28,9.95,7,12,8.68.33.27.67.52,1,.8a65.5,65.5,0,0,1,5.71,5.5,80.58,80.58,0,0,1,8,10.46c.53.81,1.05,1.62,1.55,2.45a88.11,88.11,0,0,1,6.12,11.86c1,2.54,2,5.11,2.75,7.69.12.4.2.8.32,1.2a65.37,65.37,0,0,1,1.78,7.93s0,.08,0,.12a55.06,55.06,0,0,1,.67,8.59L710.7,369.07c0-1.37,0-4.6-.09-6Z"/><path class="cls-27" d="M710,363.32l.16-.09c-.11-1.45-.28-2.91-.5-4.38v0l0-.08c-.24-1.54-.52-3.05-.87-4.56-.25-1.14-.59-2.27-.91-3.41l-.32-1.19c-.07-.24-.12-.47-.19-.7-.68-2.21-1.47-4.4-2.35-6.58,0-.14-.15-.26-.21-.4A87.89,87.89,0,0,0,698.69,330c-.51-.83-1-1.63-1.55-2.45a81.1,81.1,0,0,0-8-10.45c-.07-.08-.13-.18-.2-.26-1.56-1.63-3.13-3.2-4.76-4.64-.24-.21-.49-.39-.73-.59s-.65-.53-1-.8c-.74-.61-1.47-1.24-2.23-1.8-1.21-.9-2.45-1.73-3.7-2.49l0,0c-.1-.07-.2-.16-.31-.23L276.4,538.66c2.15,1.28,10.22,7.22,12.25,8.88.33.27.67.52,1,.8a65.17,65.17,0,0,1,5.69,5.49,80.35,80.35,0,0,1,8,10.45c.53.81,1.05,1.63,1.56,2.45A88.49,88.49,0,0,1,311,578.59a79.14,79.14,0,0,1,2.75,7.68c.12.39.2.79.32,1.19a65.31,65.31,0,0,1,1.77,7.93l0,.12a56.14,56.14,0,0,1,.66,8.58L710.24,369.33c0-1.37,0-4.7-.08-6.1Z"/><path class="cls-28" d="M709.55,363.49l.16-.1q-.18-2.17-.51-4.38v0l0-.08c-.24-1.54-.52-3-.87-4.56-.25-1.13-.59-2.27-.91-3.4-.11-.4-.2-.8-.32-1.2-.07-.23-.12-.46-.19-.69-.67-2.21-1.46-4.4-2.34-6.58,0-.14-.15-.26-.21-.4a86.46,86.46,0,0,0-6.08-11.84c-.51-.84-1-1.64-1.54-2.45a81.07,81.07,0,0,0-8-10.44c-.07-.09-.13-.19-.2-.27-1.55-1.63-3.12-3.19-4.75-4.63-.23-.21-.48-.39-.72-.59s-.66-.53-1-.8c-.74-.61-1.47-1.24-2.23-1.8q-1.82-1.33-3.69-2.49l0,0c-.1-.06-.2-.16-.31-.22L276.73,538.46c2.14,1.28,10.49,7.43,12.52,9.09.33.27.67.52,1,.8a63.64,63.64,0,0,1,5.68,5.49,80.33,80.33,0,0,1,8,10.44c.53.81,1,1.62,1.55,2.45a88.19,88.19,0,0,1,6.08,11.84c1,2.54,2,5.1,2.74,7.67.11.4.2.8.31,1.2a65.22,65.22,0,0,1,1.78,7.92.5.5,0,0,0,0,.12,54.9,54.9,0,0,1,.67,8.57L709.78,369.58c0-1.37,0-4.78-.07-6.19Z"/><path class="cls-29" d="M709.09,363.65l.16-.09c-.11-1.45-.28-2.91-.5-4.38v0a.38.38,0,0,0,0-.08c-.24-1.54-.52-3.05-.87-4.56-.25-1.13-.59-2.26-.91-3.4-.11-.4-.2-.79-.32-1.19-.07-.23-.11-.46-.18-.69q-1-3.32-2.34-6.57c-.05-.14-.15-.27-.21-.41a88,88,0,0,0-6.06-11.83c-.51-.84-1-1.63-1.55-2.45a79.89,79.89,0,0,0-8-10.43c-.07-.08-.13-.19-.2-.26-1.55-1.63-3.12-3.19-4.74-4.63-.23-.21-.48-.39-.72-.59s-.65-.53-1-.8c-.74-.61-1.47-1.24-2.23-1.8-1.21-.89-2.43-1.72-3.68-2.48h0c-.1-.06-.2-.15-.3-.22L277.06,538.26c2.14,1.28,10.77,7.64,12.8,9.3.32.27.66.52,1,.8a64.73,64.73,0,0,1,5.66,5.48,79.89,79.89,0,0,1,8,10.43c.53.81,1.05,1.62,1.55,2.45a87.38,87.38,0,0,1,6.06,11.83,78,78,0,0,1,2.73,7.67c.12.4.21.8.32,1.19a65.16,65.16,0,0,1,1.77,7.92.5.5,0,0,1,0,.12,54.72,54.72,0,0,1,.67,8.57L709.32,369.83c0-1.36,0-4.87-.07-6.27Z"/><path class="cls-30" d="M708.64,363.82l.16-.1c-.11-1.45-.28-2.9-.5-4.37v0a.54.54,0,0,0,0-.08c-.25-1.53-.52-3-.87-4.54-.25-1.14-.59-2.27-.9-3.4-.12-.4-.21-.79-.32-1.19-.07-.24-.12-.47-.19-.7q-1-3.3-2.33-6.56c0-.14-.15-.26-.21-.4a86.16,86.16,0,0,0-6.05-11.83c-.5-.83-1-1.63-1.54-2.45a81.24,81.24,0,0,0-7.94-10.42c-.08-.08-.13-.18-.2-.26-1.55-1.63-3.11-3.19-4.73-4.63-.23-.21-.48-.38-.72-.59s-.65-.52-1-.79c-.73-.61-1.46-1.24-2.22-1.8-1.2-.89-2.43-1.72-3.67-2.48l0,0-.3-.23L277.4,538.07c2.13,1.28,11,7.84,13.06,9.5.32.27.66.52,1,.79a67.67,67.67,0,0,1,5.65,5.48A80.65,80.65,0,0,1,305,564.27c.53.8,1,1.62,1.54,2.44a87.88,87.88,0,0,1,6.05,11.83,78.55,78.55,0,0,1,2.72,7.66c.12.39.21.79.32,1.19a65,65,0,0,1,1.77,7.91.5.5,0,0,0,0,.12,55.89,55.89,0,0,1,.66,8.56L708.86,370.09c0-1.37,0-5-.06-6.37Z"/><path class="cls-31" d="M708.19,364l.16-.09c-.12-1.45-.28-2.91-.5-4.37v0l0-.08c-.24-1.53-.51-3-.86-4.54-.25-1.13-.59-2.27-.9-3.4-.11-.4-.2-.79-.32-1.19-.07-.23-.12-.46-.19-.69-.67-2.2-1.45-4.39-2.32-6.56-.05-.14-.15-.26-.21-.4a86.94,86.94,0,0,0-6-11.81c-.51-.84-1-1.63-1.54-2.45A80.31,80.31,0,0,0,687.53,318c-.08-.09-.13-.19-.21-.27-1.53-1.62-3.09-3.18-4.7-4.62-.24-.21-.49-.39-.72-.59s-.65-.53-1-.8c-.74-.6-1.46-1.23-2.21-1.79q-1.82-1.33-3.67-2.48l0,0c-.11-.07-.21-.16-.31-.22l-397,230.67c2.13,1.28,11.32,8,13.33,9.71.33.27.66.52,1,.79a64.43,64.43,0,0,1,5.63,5.48,80.16,80.16,0,0,1,7.93,10.41c.52.81,1,1.62,1.53,2.45a87.59,87.59,0,0,1,6,11.81c1,2.53,1.95,5.08,2.71,7.65.12.4.21.8.32,1.19a65.37,65.37,0,0,1,1.76,7.91.52.52,0,0,1,0,.11,54.74,54.74,0,0,1,.66,8.56l389.77-233.6c0-1.37,0-5-.06-6.45Z"/><path class="cls-2" d="M707.73,364.15l.16-.1c-.11-1.44-.28-2.9-.5-4.36v0l0-.08c-.24-1.53-.52-3-.86-4.54-.25-1.13-.59-2.26-.9-3.39-.11-.4-.2-.79-.32-1.19-.06-.24-.11-.46-.18-.69-.67-2.2-1.45-4.39-2.32-6.56-.06-.13-.15-.26-.21-.4a85.64,85.64,0,0,0-6-11.8c-.5-.84-1-1.63-1.53-2.45a80.77,80.77,0,0,0-7.9-10.4c-.08-.08-.13-.19-.21-.26a65.77,65.77,0,0,0-4.69-4.62c-.23-.21-.48-.39-.72-.59s-.65-.52-1-.8c-.73-.6-1.45-1.23-2.2-1.79q-1.8-1.33-3.65-2.48l0,0c-.11-.06-.2-.16-.31-.22L278.06,537.68c2.13,1.27,11.59,8.25,13.6,9.91.33.27.66.52,1,.79a68.78,68.78,0,0,1,5.62,5.47,80.88,80.88,0,0,1,7.9,10.41c.52.8,1,1.62,1.53,2.44a86.79,86.79,0,0,1,6,11.8,79.23,79.23,0,0,1,2.71,7.65c.12.4.21.8.32,1.19a68.71,68.71,0,0,1,1.75,7.9l0,.11a55.76,55.76,0,0,1,.66,8.55L708,370.59c0-1.36,0-5.14-.06-6.54Z"/><polygon class="cls-32" points="369.15 637.56 655.63 471.08 655.8 413.97 369.32 580.46 369.15 637.56"/><path class="cls-33" d="M269.4,542.77.35,387.44,0,540.18,305.1,716.33l.23-111.43C306.26,577.22,289.31,554.26,269.4,542.77Z"/><g class="cls-1"><polygon class="cls-34" points="369.59 613.52 512.93 698.24 512.96 687.84 369.62 603.13 369.59 613.52"/><polygon class="cls-35" points="512.93 698.24 782.81 541.4 782.84 531 512.96 687.84 512.93 698.24"/></g><polygon class="cls-32" points="71.82 392.1 142.38 432.58 494.63 227.88 424.06 187.4 71.82 392.1"/><polygon class="cls-36" points="181.13 456.49 251.7 496.97 603.95 292.26 533.38 251.79 181.13 456.49"/><g class="cls-1"><polygon class="cls-34" points="40.19 186.04 103.44 410.07 117.2 418.59 50.21 187.4 40.19 186.04"/><polygon class="cls-37" points="40.19 186.04 50.21 187.4 370.34 1.36 360.32 0 40.19 186.04"/></g><polygon class="cls-38" points="369.32 602.95 512.96 687.84 782.84 531 639.2 446.11 369.32 602.95"/><polygon class="cls-39" points="181.13 456.49 251.7 496.97 383.16 420.63 312.6 380.15 181.13 456.49"/><polygon class="cls-39" points="316.3 377.85 386.87 418.32 405.88 407.3 335.32 366.82 316.3 377.85"/><polygon class="cls-38" points="50.21 187.4 108.41 389.66 428.54 203.62 370.34 1.36 50.21 187.4"/><polygon class="cls-40" points="108.41 389.66 116.66 418.32 142.38 432.58 443.98 257.31 428.54 203.62 108.41 389.66"/><g class="cls-1"><polygon class="cls-41" points="93.01 211.79 153.82 425.93 160.97 422.99 101.31 212.92 93.01 211.79"/><polygon class="cls-42" points="93.01 211.79 101.31 212.92 366.47 58.82 358.18 57.7 93.01 211.79"/></g><polygon class="cls-2" points="101.31 212.92 160.74 422.46 427.68 266.94 366.47 58.82 101.31 212.92"/><polygon class="cls-40" points="125.84 384.15 139.62 376.14 93.01 211.79 125.84 384.15"/><path class="cls-2" d="M759.72,524.39,614.58,437.77,368.71,580.86,513.58,675C513.8,674.81,759.3,524.14,759.72,524.39Z"/><path class="cls-41" d="M759.78,524.28,615.83,437.93l-.25.14L759.49,524.4c-1.15.6-7,4.09-38.43,23.29-20.77,12.68-50,30.57-84.54,51.74C585.09,631,516.4,673.11,513.59,674.9L369.32,581.47v-.61l144.2,94.29.06.06.07-.07c.54-.38,62.46-38.41,122.69-75.32,77.6-47.56,122.58-75,123.4-75.31l0-.12Z"/><g class="cls-1"><polygon class="cls-43" points="651.84 532.59 657.27 535.58 506.8 622.57 501.2 619.18 651.84 532.59"/><polygon class="cls-43" points="685.75 523.53 691.18 526.47 516.52 628.48 510.88 625.06 685.75 523.53"/><polygon class="cls-43" points="695.14 528.62 700.6 531.58 526.3 634.42 520.64 630.97 695.14 528.62"/></g><path class="cls-44" d="M552.66,529c-10.44,9-26.28,14.85-41.36,20.46-3.41,1.27-6.92,2.58-10.22,3.87-2.14.84-4.31,1.72-6.41,2.56-4.86,2-9.85,4-14.88,5.69-25.33,8.56-28.46,23.57-28.49,23.72l-.42,0c0-.15,3.18-15.3,28.72-23.94,5-1.69,10-3.71,14.84-5.67,2.1-.85,4.27-1.73,6.41-2.57,3.3-1.29,6.82-2.6,10.23-3.87,18.72-7,38.61-14.38,47.74-27.5a12.18,12.18,0,0,0,1.76-11.09c-1.68-4.42-5.18-11-8.32-14.56A18.75,18.75,0,0,1,548.8,491a10.65,10.65,0,0,1,.92-11.1c3.93-5.37,13.35-9.43,28.18-12.09l.08.3c-14.66,2.61-24,6.61-27.81,11.88a10.46,10.46,0,0,0-.91,10.9,18.4,18.4,0,0,0,3.42,5.05c3.18,3.56,6.69,10.2,8.38,14.64a12.39,12.39,0,0,1-1.79,11.28A38.39,38.39,0,0,1,552.66,529Z"/><polygon class="cls-44" points="468.55 601.43 466.55 602.71 466.14 602.45 468.14 601.17 468.55 601.43"/><polygon class="cls-44" points="507.85 586.87 507.42 587.13 505.28 585.82 505.71 585.55 507.85 586.87"/><path class="cls-44" d="M465.35,604.1l-.25.16-1.59-1a1.85,1.85,0,0,1-.06.26,1.17,1.17,0,0,1-.14.25l-.24-.16a.86.86,0,0,0,.13-.38.57.57,0,0,0-.06-.31l.16-.11Z"/><polygon class="cls-44" points="462.06 597.3 460.07 598.58 459.67 598.32 461.65 597.04 462.06 597.3"/><polygon class="cls-44" points="455.62 593.2 453.65 594.48 453.25 594.22 455.21 592.94 455.62 593.2"/><polygon class="cls-44" points="449.23 589.13 447.28 590.41 446.88 590.16 448.83 588.88 449.23 589.13"/><polygon class="cls-44" points="442.89 585.1 440.96 586.38 440.56 586.13 442.5 584.85 442.89 585.1"/><polygon class="cls-44" points="436.6 581.1 434.69 582.38 434.29 582.13 436.21 580.85 436.6 581.1"/><polygon class="cls-44" points="430.37 577.13 428.46 578.41 428.07 578.16 429.98 576.88 430.37 577.13"/><polygon class="cls-44" points="424.18 573.19 422.29 574.47 421.9 574.23 423.79 572.94 424.18 573.19"/><polygon class="cls-44" points="418.04 569.28 416.17 570.57 415.78 570.32 417.65 569.04 418.04 569.28"/><polygon class="cls-44" points="539.34 567.06 538.9 567.34 536.66 566.02 537.11 565.74 539.34 567.06"/><polygon class="cls-44" points="572.32 546.32 571.86 546.61 569.52 545.29 569.99 545 572.32 546.32"/><polygon class="cls-44" points="606.9 524.57 606.41 524.88 603.97 523.56 604.46 523.25 606.9 524.57"/><path class="cls-44" d="M606,482.79a96.6,96.6,0,0,1-33.2,12.66,101.54,101.54,0,0,1-14.45,1.14c-9.12.3-18.43.61-24.81,4.89a16.63,16.63,0,0,0-7.29,10.89c-.91,6.33-2,12-5.86,17.87-7,10.51-19.27,18.45-34.35,22.37a84.68,84.68,0,0,1-13.74,2.17,195,195,0,0,1-24,.46h-.42c-6-.2-14.07-.47-17,4.21-2.24,3.55,4.8,14.51,7,17.3l-.37.13c-2.22-2.82-9.3-13.88-7-17.53,3-4.86,11.32-4.58,17.42-4.38h.42a193.51,193.51,0,0,0,24-.47,83.21,83.21,0,0,0,13.62-2.15c15-3.89,27.14-11.77,34.08-22.2,3.86-5.8,4.92-11.48,5.82-17.78a16.86,16.86,0,0,1,7.42-11.07c6.53-4.39,15.95-4.7,25.17-5a101,101,0,0,0,14.33-1.13,95.6,95.6,0,0,0,32.94-12.57Z"/><path class="cls-45" d="M609.06,484.36a96.71,96.71,0,0,1-33.2,12.6c-12.64,2.28-29.53-.64-39.53,6.05a16.84,16.84,0,0,0-7.39,11c-.87,6.08-1.92,11.94-5.86,17.85-6.71,10-18.58,18.21-34.35,22.28-9.13,2.36-24.63,3.16-34,2.77-6.6-.28-22.64-1.81-21.24,5.17a42,42,0,0,0,8.27,17.31l34.52,21.86L637.81,499Z"/><path class="cls-46" d="M433.62,556.68a.56.56,0,0,1,0,1,1.51,1.51,0,0,1-1.55,0,.57.57,0,0,1,0-1A1.53,1.53,0,0,1,433.62,556.68Z"/><path class="cls-46" d="M510.49,549.26a.58.58,0,0,1,0,1.07,1.78,1.78,0,0,1-1.73,0,.58.58,0,0,1,0-1.07A1.78,1.78,0,0,1,510.49,549.26Z"/><path class="cls-46" d="M548.55,532c.51.29.51.78,0,1.11a1.93,1.93,0,0,1-1.82.07c-.51-.28-.51-.78,0-1.1A1.93,1.93,0,0,1,548.55,532Z"/><path class="cls-46" d="M553.77,495.5c.51.27.51.77,0,1.12a2,2,0,0,1-1.84.11c-.51-.27-.51-.77,0-1.11A1.92,1.92,0,0,1,553.77,495.5Z"/><path class="cls-46" d="M553.19,476.72c.51.27.51.78,0,1.13a2,2,0,0,1-1.84.14c-.51-.27-.51-.78,0-1.12A2,2,0,0,1,553.19,476.72Z"/><path class="cls-44" d="M546.44,533.63c-10,6.49-22.81,11.26-35.14,15.85-3.41,1.27-6.92,2.58-10.22,3.87-2.14.84-4.31,1.72-6.41,2.57-4.86,2-9.85,4-14.88,5.68-25.34,8.56-28.46,23.57-28.49,23.72l-.42,0c0-.15,3.18-15.3,28.72-23.94,5-1.69,10-3.71,14.84-5.67,2.09-.85,4.27-1.73,6.41-2.57,3.31-1.29,6.82-2.6,10.23-3.87,18.72-7,38.61-14.38,47.74-27.5a12.2,12.2,0,0,0,1.76-11.09c-1.68-4.42-5.18-11-8.32-14.56A18.75,18.75,0,0,1,548.8,491a10.65,10.65,0,0,1,.92-11.1c3.93-5.37,13.35-9.43,28.18-12.09l.08.3c-14.66,2.61-24,6.61-27.82,11.88a10.48,10.48,0,0,0-.9,10.9,18.4,18.4,0,0,0,3.42,5.05c3.18,3.56,6.69,10.2,8.38,14.64a12.39,12.39,0,0,1-1.79,11.28A45.43,45.43,0,0,1,546.44,533.63Z"/><polygon class="cls-44" points="641.52 499.58 474.52 604.97 415.82 567.62 415.44 567.88 474.52 605.49 642.03 499.85 641.52 499.58"/><polygon class="cls-44" points="468.55 601.43 466.55 602.71 466.14 602.45 468.14 601.17 468.55 601.43"/><polygon class="cls-44" points="507.85 586.87 507.42 587.13 505.28 585.82 505.71 585.55 507.85 586.87"/><polygon class="cls-44" points="462.06 597.3 460.07 598.58 459.67 598.32 461.65 597.04 462.06 597.3"/><polygon class="cls-44" points="455.62 593.2 453.65 594.48 453.25 594.22 455.21 592.94 455.62 593.2"/><polygon class="cls-44" points="449.23 589.13 447.28 590.41 446.88 590.16 448.83 588.88 449.23 589.13"/><polygon class="cls-44" points="442.89 585.1 440.96 586.38 440.56 586.13 442.5 584.85 442.89 585.1"/><polygon class="cls-44" points="436.6 581.1 434.69 582.38 434.29 582.13 436.21 580.85 436.6 581.1"/><polygon class="cls-44" points="430.37 577.13 428.46 578.41 428.07 578.16 429.98 576.88 430.37 577.13"/><polygon class="cls-44" points="424.18 573.19 422.29 574.47 421.9 574.23 423.79 572.94 424.18 573.19"/><polygon class="cls-44" points="418.04 569.28 416.17 570.57 415.78 570.32 417.65 569.04 418.04 569.28"/><polygon class="cls-44" points="539.34 567.06 538.9 567.34 536.66 566.02 537.11 565.74 539.34 567.06"/><polygon class="cls-44" points="572.32 546.32 571.86 546.61 569.52 545.29 569.99 545 572.32 546.32"/><polygon class="cls-44" points="606.9 524.57 606.41 524.88 603.97 523.56 604.46 523.25 606.9 524.57"/><path class="cls-44" d="M606,482.79a96.6,96.6,0,0,1-33.2,12.66,101.54,101.54,0,0,1-14.45,1.14c-9.12.3-18.43.61-24.81,4.89a16.66,16.66,0,0,0-7.29,10.89c-.91,6.33-2,12-5.86,17.87-7,10.51-19.27,18.45-34.35,22.37a84.68,84.68,0,0,1-13.74,2.17,195,195,0,0,1-24,.46h-.42c-6-.2-14.07-.47-17,4.21-2.23,3.55,4.81,14.51,7,17.3l-.37.13c-2.22-2.82-9.3-13.88-7-17.53,3-4.86,11.32-4.58,17.42-4.38h.42a193.47,193.47,0,0,0,24-.47,83.21,83.21,0,0,0,13.62-2.15c15-3.89,27.14-11.77,34.08-22.2,3.86-5.8,4.92-11.48,5.82-17.78a16.76,16.76,0,0,1,7.42-11.07c6.53-4.39,15.95-4.7,25.17-5a101,101,0,0,0,14.33-1.13,95.8,95.8,0,0,0,32.94-12.57Z"/><path class="cls-46" d="M433.62,556.68a.56.56,0,0,1,0,1,1.51,1.51,0,0,1-1.55,0,.57.57,0,0,1,0-1A1.53,1.53,0,0,1,433.62,556.68Z"/><path class="cls-46" d="M510.49,549.26a.58.58,0,0,1,0,1.07,1.78,1.78,0,0,1-1.73,0,.58.58,0,0,1,0-1.07A1.78,1.78,0,0,1,510.49,549.26Z"/><path class="cls-46" d="M548.55,532c.51.29.51.78,0,1.11a1.93,1.93,0,0,1-1.82.07c-.51-.28-.51-.78,0-1.1A1.93,1.93,0,0,1,548.55,532Z"/><path class="cls-46" d="M553.77,495.5c.51.27.51.77,0,1.12a2,2,0,0,1-1.84.11c-.51-.27-.51-.77,0-1.11A1.92,1.92,0,0,1,553.77,495.5Z"/><path class="cls-46" d="M553.19,476.72c.51.27.51.78,0,1.13a2,2,0,0,1-1.84.14c-.51-.27-.51-.78,0-1.12A2,2,0,0,1,553.19,476.72Z"/><path class="cls-47" d="M453.62,586.9s2.88-15.15,28.7-23.83c7.22-2.43,14.23-5.46,21.35-8.23,21.79-8.5,46.59-15.73,58.19-31.85,4.15-5.77,3.45-11.75.45-17.3-4.81-8.87-17.38-17.43-7.44-27.73,5.4-5.59,16.48-7.68,26.07-8.47l55.58,28.81L475.21,600.57Z"/><path class="cls-48" d="M453.62,586.9s2.88-15.15,28.7-23.83c7.22-2.43,14.23-5.46,21.35-8.23,21.79-8.5,46.59-15.73,58.19-31.85,4.15-5.77,3.45-11.75.45-17.3-4.81-8.87-17.38-17.43-7.44-27.73,5.4-5.59,16.48-7.68,26.07-8.47l57.11,29.6L476.45,601.36Z"/><polygon class="cls-49" points="493.88 602.68 482.49 609.78 478.03 606.94 489.35 599.84 493.88 602.68"/><polygon class="cls-49" points="519.27 586.84 507.45 594.22 502.83 591.37 514.58 583.99 519.27 586.84"/><polygon class="cls-49" points="551.32 566.85 538.95 574.57 534.13 571.71 546.43 563.99 551.32 566.85"/><polygon class="cls-49" points="584.54 546.13 571.58 554.22 566.56 551.36 579.44 543.27 584.54 546.13"/><polygon class="cls-49" points="619.52 524.32 605.92 532.8 600.68 529.93 614.18 521.45 619.52 524.32"/><polygon class="cls-49" points="656.94 500.98 642.65 509.89 637.16 507.02 651.35 498.11 656.94 500.98"/><path class="cls-2" d="M472.65,563.87a1,1,0,0,1,0,1.76,2.8,2.8,0,0,1-2.76.06,1,1,0,0,1,0-1.76A2.8,2.8,0,0,1,472.65,563.87Z"/><path class="cls-46" d="M472.24,564.14a.68.68,0,0,1,0,1.24,2,2,0,0,1-1.94,0,.68.68,0,0,1,0-1.24A2,2,0,0,1,472.24,564.14Z"/><path class="cls-2" d="M511.08,548.87a1,1,0,0,1,0,1.81,3,3,0,0,1-2.91.09,1,1,0,0,1,0-1.81A3,3,0,0,1,511.08,548.87Z"/><path class="cls-46" d="M510.65,549.15a.7.7,0,0,1,0,1.28,2.13,2.13,0,0,1-2.05.06.69.69,0,0,1,0-1.27A2.13,2.13,0,0,1,510.65,549.15Z"/><path class="cls-2" d="M549.17,531.64c.85.48.86,1.31,0,1.86a3.25,3.25,0,0,1-3.07.13c-.84-.48-.85-1.32,0-1.87A3.23,3.23,0,0,1,549.17,531.64Z"/><path class="cls-46" d="M548.72,531.93c.6.34.6.93,0,1.31a2.25,2.25,0,0,1-2.15.09c-.6-.34-.6-.92,0-1.31A2.33,2.33,0,0,1,548.72,531.93Z"/><path class="cls-2" d="M554.4,495.07c.86.47.86,1.31,0,1.89a3.27,3.27,0,0,1-3.09.19c-.86-.46-.86-1.3,0-1.88A3.32,3.32,0,0,1,554.4,495.07Z"/><path class="cls-46" d="M553.94,495.38c.6.33.6.92,0,1.33a2.32,2.32,0,0,1-2.18.13c-.6-.32-.6-.91,0-1.32A2.32,2.32,0,0,1,553.94,495.38Z"/><path class="cls-2" d="M553.82,476.29c.86.46.86,1.3,0,1.89a3.3,3.3,0,0,1-3.1.24c-.86-.46-.86-1.3,0-1.89A3.32,3.32,0,0,1,553.82,476.29Z"/><path class="cls-46" d="M553.36,476.61c.6.32.6.91,0,1.33a2.32,2.32,0,0,1-2.18.16c-.6-.32-.6-.91,0-1.32A2.3,2.3,0,0,1,553.36,476.61Z"/><path class="cls-2" d="M433.61,556.16a1,1,0,0,1,0,1.72A2.57,2.57,0,0,1,431,558a1,1,0,0,1,0-1.71A2.59,2.59,0,0,1,433.61,556.16Z"/><path class="cls-46" d="M433.23,556.43a.67.67,0,0,1,0,1.21,1.83,1.83,0,0,1-1.84.05.67.67,0,0,1,0-1.21A1.81,1.81,0,0,1,433.23,556.43Z"/><polygon class="cls-50" points="369.32 580.46 369.15 602.86 369.32 602.95 639.2 446.11 620.01 434.77 369.32 580.46"/><polygon class="cls-50" points="150.28 387.44 159.83 422.91 428.58 266.48 417.55 232.81 150.28 387.44"/></g></g></g></svg>