<?xml version="1.0" encoding="utf-8"?>
<!-- Generator: Adobe Illustrator 27.0.0, SVG Export Plug-In . SVG Version: 6.00 Build 0)  -->
<svg version="1.1" id="Calque_1" xmlns="http://www.w3.org/2000/svg" xmlns:xlink="http://www.w3.org/1999/xlink" x="0px" y="0px"
	 viewBox="0 0 238.8 55.2" style="enable-background:new 0 0 238.8 55.2;" xml:space="preserve">
<style type="text/css">
	.st0{fill:url(#SVGID_1_);}
	.st1{fill:#FFFFFF;}
	.st2{fill:none;}
	.st3{font-family:'Roboto-Medium';}
	.st4{font-size:5px;}
	.st5{fill:#397EE9;}
	.st6{opacity:0.5;fill:#FFFFFF;}
	.st7{filter:url(#Adobe_OpacityMaskFilter);}
	.st8{fill-rule:evenodd;clip-rule:evenodd;fill:#FFFFFF;}
	.st9{mask:url(#mask-2_00000168815421286443004130000013774881332701687484_);fill:#0C0FF5;}
	.st10{filter:url(#Adobe_OpacityMaskFilter_00000142883780046794471690000000568575041516426884_);}
	.st11{mask:url(#mask-4_00000097494422490902712140000018138052853217244860_);fill:#0C0FF5;}
	.st12{filter:url(#Adobe_OpacityMaskFilter_00000132061833332574445930000016565907703044628096_);}
	.st13{mask:url(#mask-6_00000169549848215108936980000015409933635253143741_);fill:#0C0FF5;}
	.st14{filter:url(#Adobe_OpacityMaskFilter_00000150806329248349292840000012953388952339986609_);}
	.st15{mask:url(#mask-8_00000067214253495860118570000000478006118060024743_);fill:#FFCD02;}
	.st16{fill:#0C0FF5;}
	.st17{fill:#3470E5;}
</style>
<linearGradient id="SVGID_1_" gradientUnits="userSpaceOnUse" x1="0" y1="27.6" x2="238.77" y2="27.6">
	<stop  offset="0" style="stop-color:#3470E5"/>
	<stop  offset="1" style="stop-color:#0C0FF5"/>
</linearGradient>
<rect y="0" class="st0" width="238.8" height="55.2"/>
<g>
	<g>
		<g>
			<path class="st1" d="M94.7,6.1c1.3,0,2.4,0.3,3.3,0.8c0.9,0.5,1.8,1.6,2.7,3.2L118,41.6c0.2,0.3,0.2,0.6,0.1,0.9
				c-0.1,0.2-0.3,0.3-0.8,0.3h-6.6c-0.6,0-1-0.2-1.2-0.7l-3.7-6.7H81.3l-3.6,6.7c-0.2,0.5-0.6,0.7-1.2,0.7h-6.8
				c-0.5,0-0.7-0.1-0.8-0.3c-0.1-0.2,0-0.5,0.1-0.9l17.2-31.4c0.9-1.6,1.7-2.6,2.6-3.2c0.8-0.5,1.8-0.8,2.9-0.8H94.7z M84.6,29.3h18
				l-8.3-15.3c-0.1-0.2-0.3-0.4-0.6-0.4h-0.3c-0.2,0-0.4,0.1-0.6,0.4L84.6,29.3z"/>
			<path class="st1" d="M148.6,6.1c2.8,0,5.3,0.3,7.3,0.9c2,0.6,3.7,1.5,5,2.7c1.3,1.2,2.2,2.7,2.9,4.6c0.6,1.9,0.9,4.1,0.9,6.6V28
				c0,2.5-0.3,4.8-0.9,6.6c-0.6,1.9-1.6,3.4-2.9,4.6c-1.3,1.2-2.9,2.1-5,2.7c-2,0.6-4.4,0.9-7.3,0.9h-24.5c-1,0-1.6-0.5-1.6-1.6V7.7
				c0-1,0.5-1.6,1.6-1.6H148.6z M130.5,34.8c0,0.5,0.2,0.7,0.7,0.7h17.2c1.5,0,2.8-0.1,3.9-0.4c1-0.3,1.9-0.7,2.5-1.4
				c0.6-0.6,1.1-1.5,1.4-2.5c0.3-1,0.4-2.3,0.4-3.9v-5.8c0-1.5-0.1-2.8-0.4-3.9c-0.3-1-0.7-1.9-1.4-2.5c-0.6-0.6-1.5-1.1-2.5-1.4
				c-1-0.3-2.3-0.4-3.9-0.4h-17.2c-0.5,0-0.7,0.2-0.7,0.7V34.8z"/>
			<path class="st1" d="M207.5,6.1c0.8,0,1.2,0.4,1.2,1.2v5c0,0.8-0.4,1.2-1.2,1.2h-26.2c-1,0-1.7,0.3-2.1,0.8
				c-0.4,0.5-0.6,1.2-0.6,2.1v1.8c0,2,0.9,2.9,2.7,2.9h19.6c3,0,5.3,0.8,6.9,2.3c1.5,1.6,2.3,3.8,2.3,6.7v4.2c0,2.5-0.8,4.6-2.2,6.2
				c-1.5,1.6-3.8,2.4-7,2.4h-29c-0.8,0-1.2-0.4-1.2-1.2v-5c0-0.8,0.4-1.2,1.2-1.2h27.5c1,0,1.7-0.3,2.1-0.8c0.4-0.5,0.6-1.2,0.6-2.1
				v-2.1c0-2-0.9-2.9-2.7-2.9h-19.6c-3,0-5.3-0.8-6.9-2.3c-1.5-1.6-2.3-3.8-2.3-6.7v-3.8c0-2.5,0.7-4.6,2.2-6.2
				c1.5-1.6,3.8-2.4,7-2.4H207.5z"/>
		</g>
	</g>
	<rect x="66" y="44.3" class="st2" width="146.8" height="4.7"/>
	<text transform="matrix(1 0 0 1 76.905 48.1471)" class="st1 st3 st4">Gestionnaire Électronique de Documents d’entreprise et </text>
</g>
<g>
	<path class="st5" d="M46.7,46.4H17.9c-1.3,0-2.4-1.1-2.4-2.4l-1.1-19.4c-0.1-1.5,1-2.7,2.4-2.7h33.7c1.4,0,2.5,1.2,2.4,2.7L49.2,44
		C49.1,45.4,48,46.4,46.7,46.4"/>
	<path class="st1" d="M50.6,25.8L37.4,39.1c-0.6,0.6-1.5,0.6-2,0L15.4,19.1c-0.6-0.6-0.6-1.5,0-2L28.6,3.9c0.6-0.6,1.5-0.6,2,0
		l19.9,19.9C51.2,24.4,51.2,25.3,50.6,25.8z"/>
	<path class="st6" d="M46.7,29L46.2,37l0,0l-0.1,2.1l0,0l-0.2,4.3l0,0.2l-0.2,3.4c-0.1,1.3-1.1,2.2-2.4,2.2H12.5
		c-1.3,0-2.3-1-2.4-2.2L9.1,29c-0.1-1.4,1-2.5,2.4-2.5h0.3v-2c0-0.4,0.2-0.8,0.4-1.1c0.3-0.3,0.7-0.4,1.1-0.4h11
		c0.4,0,0.8,0.2,1.1,0.4c0.3,0.3,0.4,0.7,0.4,1.1v2h18.6C45.7,26.5,46.8,27.6,46.7,29"/>
	<g id="Clipped_00000096022803463388745040000003846603003746439601_" transform="translate(57.000000, 39.000000)">
		<g id="a_00000051385816451447461780000013153199760560675246_">
		</g>
		<defs>
			<filter id="Adobe_OpacityMaskFilter" filterUnits="userSpaceOnUse" x="-36.5" y="-29.1" width="12.7" height="13">
				<feColorMatrix  type="matrix" values="1 0 0 0 0  0 1 0 0 0  0 0 1 0 0  0 0 0 1 0"/>
			</filter>
		</defs>
		
			<mask maskUnits="userSpaceOnUse" x="-36.5" y="-29.1" width="12.7" height="13" id="mask-2_00000168815421286443004130000013774881332701687484_">
			<g class="st7">
				<path id="path-1_00000131359913733565920570000006460680887537979776_" class="st8" d="M-25.6-28l-9.8,10
					c-0.2,0.2-0.2,0.5,0,0.7c0.1,0.1,0.2,0.2,0.4,0.2c0.1,0,0.3-0.1,0.4-0.2l9.8-10c0.2-0.2,0.2-0.5,0-0.7c-0.1-0.1-0.2-0.2-0.4-0.2
					C-25.4-28.2-25.5-28.1-25.6-28z"/>
			</g>
		</mask>
		<polygon class="st9" points="-36.5,-17.6 -25.2,-29.1 -23.8,-27.6 -35,-16.1 		"/>
	</g>
	<g transform="translate(61.000000, 43.000000)">
		<g id="c_00000028325455315121623820000017425819053692821402_">
		</g>
		<defs>
			
				<filter id="Adobe_OpacityMaskFilter_00000070092597872781952690000008897969507058290328_" filterUnits="userSpaceOnUse" x="-38.6" y="-31.2" width="12.7" height="13">
				<feColorMatrix  type="matrix" values="1 0 0 0 0  0 1 0 0 0  0 0 1 0 0  0 0 0 1 0"/>
			</filter>
		</defs>
		
			<mask maskUnits="userSpaceOnUse" x="-38.6" y="-31.2" width="12.7" height="13" id="mask-4_00000097494422490902712140000018138052853217244860_">
			<g style="filter:url(#Adobe_OpacityMaskFilter_00000070092597872781952690000008897969507058290328_);">
				<path id="path-3_00000019647426635933506580000006414167615821715092_" class="st8" d="M-27.7-30.1l-9.8,10
					c-0.2,0.2-0.2,0.5,0,0.7c0.1,0.1,0.2,0.2,0.4,0.2c0.1,0,0.3-0.1,0.4-0.2l9.8-10c0.2-0.2,0.2-0.5,0-0.7c-0.1-0.1-0.2-0.2-0.4-0.2
					C-27.4-30.2-27.6-30.2-27.7-30.1z"/>
			</g>
		</mask>
		<polygon class="st11" points="-38.6,-19.7 -27.3,-31.2 -25.9,-29.7 -37.1,-18.2 		"/>
	</g>
	<g transform="translate(65.000000, 47.000000)">
		<g id="e_00000049913249628583307800000003760874832722236855_">
		</g>
		<defs>
			
				<filter id="Adobe_OpacityMaskFilter_00000069391733641083317090000013773933204985731489_" filterUnits="userSpaceOnUse" x="-40.6" y="-33.3" width="12.5" height="13">
				<feColorMatrix  type="matrix" values="1 0 0 0 0  0 1 0 0 0  0 0 1 0 0  0 0 0 1 0"/>
			</filter>
		</defs>
		
			<mask maskUnits="userSpaceOnUse" x="-40.6" y="-33.3" width="12.5" height="13" id="mask-6_00000169549848215108936980000015409933635253143741_">
			<g style="filter:url(#Adobe_OpacityMaskFilter_00000069391733641083317090000013773933204985731489_);">
				<path id="path-5_00000077302050647997365320000010155289748542260916_" class="st8" d="M-29.9-32.1l-9.6,10
					c-0.2,0.2-0.2,0.5,0,0.7c0.1,0.1,0.2,0.2,0.4,0.2c0.1,0,0.3-0.1,0.4-0.2l9.6-10c0.2-0.2,0.2-0.5,0-0.7c-0.1-0.1-0.2-0.2-0.4-0.2
					C-29.7-32.3-29.8-32.2-29.9-32.1z"/>
			</g>
		</mask>
		<polygon class="st13" points="-40.6,-21.7 -29.6,-33.3 -28.1,-31.8 -39.2,-20.3 		"/>
	</g>
	<g transform="translate(70.000000, 60.000000)">
		<g id="g_00000156582837419137602760000002096710112979289486_">
		</g>
		<defs>
			
				<filter id="Adobe_OpacityMaskFilter_00000138530897951090481530000000521242512078203520_" filterUnits="userSpaceOnUse" x="-43.1" y="-39.8" width="8.8" height="8.8">
				<feColorMatrix  type="matrix" values="1 0 0 0 0  0 1 0 0 0  0 0 1 0 0  0 0 0 1 0"/>
			</filter>
		</defs>
		
			<mask maskUnits="userSpaceOnUse" x="-43.1" y="-39.8" width="8.8" height="8.8" id="mask-8_00000067214253495860118570000000478006118060024743_">
			<g style="filter:url(#Adobe_OpacityMaskFilter_00000138530897951090481530000000521242512078203520_);">
				<path id="path-7_00000030448980168507747440000001577737912274259880_" class="st8" d="M-35.9-38.9l-6.4,6.4
					c-0.1,0.1-0.1,0.4,0.1,0.6c0.2,0.2,0.5,0.3,0.6,0.1l6.4-6.4c0.1-0.1,0.1-0.4-0.1-0.6c-0.1-0.1-0.3-0.2-0.4-0.2
					C-35.8-39-35.8-39-35.9-38.9z"/>
			</g>
		</mask>
		<polygon class="st15" points="-43.1,-32.5 -35.8,-39.8 -34.3,-38.3 -41.6,-31 		"/>
	</g>
	<path class="st16" d="M19.8,17.2c0.2,0.2,0.2,0.6,0,0.9c-0.1,0.1-0.3,0.2-0.4,0.2c-0.2,0-0.3-0.1-0.4-0.2c-0.2-0.2-0.2-0.6,0-0.9
		c0.1-0.1,0.3-0.2,0.4-0.2C19.6,17,19.7,17.1,19.8,17.2"/>
	<path class="st16" d="M49,26.2l-0.5,8.1l0,0l-0.1,2.1l0,0l-0.2,4.3l0,0.2L48,44.4c-0.1,1.3-1.1,2.3-2.4,2.3H14.9
		c-1.3,0-2.3-1-2.4-2.3l-1-18.2c-0.1-1.4,1-2.5,2.4-2.5h0.3v-2c0-0.4,0.2-0.8,0.4-1.1c0.3-0.3,0.7-0.4,1.1-0.4h10.9
		c0.8,0,1.5,0.7,1.5,1.5v2h18.5C48,23.7,49.1,24.8,49,26.2"/>
	<path class="st17" d="M35.5,35.7c0,2.7-2.2,4.9-4.9,4.9c-2.7,0-4.9-2.2-4.9-4.9c0-2.7,2.2-5,4.9-5S35.5,33,35.5,35.7"/>
</g>
</svg>
