<svg xmlns="http://www.w3.org/2000/svg" viewBox="0 0 126.27 167.14"><defs><style>.cls-1{fill:#f7912f;}.cls-2{fill:#fff;}.cls-3{fill:#383838;}.cls-4{fill:#f9902e;}</style></defs><title>Fichier-pptx</title><g id="Calque_2" data-name="Calque 2"><g id="Calque_1-2" data-name="Calque 1"><path class="cls-1" d="M112.75,42.34l-30-29.63L74.35,4.47A15.53,15.53,0,0,0,63.46,0H27.53A27.53,27.53,0,0,0,0,27.53V139.6a27.54,27.54,0,0,0,27.53,27.54H98.74a27.54,27.54,0,0,0,27.53-27.53v-78a14.15,14.15,0,0,0-4.22-10.08Z"/><path class="cls-2" d="M105.73,55.24,77,55.13a6.84,6.84,0,0,1-6.8-6.82l-.06-28.66Z"/><path class="cls-3" d="M112.75,138.51a15.12,15.12,0,0,1-15.12,15.12h-69a15.12,15.12,0,0,1-15.12-15.12V27.84A15.12,15.12,0,0,1,28.66,12.71h27.7v37.2a19,19,0,0,0,19,19h37.43Z"/><path class="cls-2" d="M112.74,69.27v69.64A15.13,15.13,0,0,1,97.61,154h-69a15.12,15.12,0,0,1-15.11-15.12V28.24A15.13,15.13,0,0,1,28.64,13.11H56.35v37.2a19,19,0,0,0,19,19Z"/><path class="cls-4" d="M32.4,115.92a2.1,2.1,0,0,1,0,4.19,2,2,0,0,1-1.49-.62,2.09,2.09,0,0,1,1.49-3.57Z"/><path class="cls-4" d="M41.7,105.17v1.61a6.85,6.85,0,0,1,2.14-1.49,6.17,6.17,0,0,1,2.46-.49A6.35,6.35,0,0,1,51.15,107a7.82,7.82,0,0,1,2,5.53,7.6,7.6,0,0,1-2.06,5.44,6.48,6.48,0,0,1-4.88,2.19,6.11,6.11,0,0,1-2.35-.45,7.12,7.12,0,0,1-2.15-1.47v6.87H38.07V105.17Zm3.84,3a3.78,3.78,0,0,0-2.86,1.18,4.22,4.22,0,0,0-1.14,3.07,4.34,4.34,0,0,0,1.14,3.14,3.76,3.76,0,0,0,2.86,1.2,3.68,3.68,0,0,0,2.82-1.22,4.34,4.34,0,0,0,1.14-3.1,4.3,4.3,0,0,0-1.12-3.07A3.73,3.73,0,0,0,45.54,108.17Z"/><path class="cls-4" d="M59.8,105.17v1.61a6.85,6.85,0,0,1,2.14-1.49,6.14,6.14,0,0,1,2.46-.49A6.35,6.35,0,0,1,69.25,107a7.87,7.87,0,0,1,2,5.53,7.64,7.64,0,0,1-2.06,5.44,6.5,6.5,0,0,1-4.89,2.19,6,6,0,0,1-2.34-.45,7.12,7.12,0,0,1-2.15-1.47v6.87H56.17V105.17Zm3.84,3a3.82,3.82,0,0,0-2.87,1.18,4.22,4.22,0,0,0-1.14,3.07,4.34,4.34,0,0,0,1.14,3.14,3.8,3.8,0,0,0,2.87,1.2,3.68,3.68,0,0,0,2.81-1.22,4.74,4.74,0,0,0,0-6.17A3.7,3.7,0,0,0,63.64,108.17Z"/><path class="cls-4" d="M74.71,99.8h3.65v5.37h2.17v3.15H78.36v11.41H74.71V108.32H72.83v-3.15h1.88Z"/><path class="cls-4" d="M81.17,105.17h4.24l2.88,4,2.87-4h4.17l-5,6.85,5.6,7.71H91.73L88.27,115l-3.45,4.77H80.65l5.53-7.66Z"/></g></g></svg>