<svg xmlns="http://www.w3.org/2000/svg" viewBox="0 0 126.27 167.14"><defs><style>.cls-1{fill:#fa4634;}.cls-2{fill:#fff;}.cls-3{fill:#383838;}.cls-4{fill:#fa4636;}</style></defs><title>Fichier-pdf</title><g id="Calque_2" data-name="Calque 2"><g id="Calque_1-2" data-name="Calque 1"><path class="cls-1" d="M112.75,42.34l-30-29.63L74.35,4.47A15.53,15.53,0,0,0,63.46,0H27.53A27.53,27.53,0,0,0,0,27.53V139.6a27.54,27.54,0,0,0,27.53,27.54H98.74a27.54,27.54,0,0,0,27.53-27.53v-78a14.15,14.15,0,0,0-4.22-10.08Z"/><path class="cls-2" d="M105.73,55.24,77,55.13a6.84,6.84,0,0,1-6.8-6.82l-.06-28.66Z"/><path class="cls-3" d="M112.75,138.51a15.12,15.12,0,0,1-15.12,15.12h-69a15.12,15.12,0,0,1-15.12-15.12V27.84A15.12,15.12,0,0,1,28.66,12.71h27.7v37.2a19,19,0,0,0,19,19h37.43Z"/><path class="cls-2" d="M112.74,69.27v69.64A15.13,15.13,0,0,1,97.61,154h-69a15.12,15.12,0,0,1-15.11-15.12V28.24A15.13,15.13,0,0,1,28.64,13.11H56.35v37.2a19,19,0,0,0,19,19Z"/><path class="cls-4" d="M63.75,90.85a27.49,27.49,0,0,1-2.06,9.52c-.23.61-.49,1.2-.71,1.81a.69.69,0,0,0,0,.53,31.28,31.28,0,0,0,9.2,11,1.16,1.16,0,0,0,1,.22,32.15,32.15,0,0,1,9.32-1,13.06,13.06,0,0,1,8.27,3.1,3.48,3.48,0,0,1,1.4,2.86,2.73,2.73,0,0,1-1.53,2.27,9.52,9.52,0,0,1-4.53,1.08,23.39,23.39,0,0,1-10.4-2.36c-1.17-.54-2.28-1.21-3.43-1.81a1,1,0,0,0-.61-.13c-5.18,1.39-10.34,2.82-15.52,4.19a3.16,3.16,0,0,0-2.25,1.89,34.4,34.4,0,0,1-4.9,8,27,27,0,0,1-3.15,3,5.63,5.63,0,0,1-3.42,1.36,4.23,4.23,0,0,1-4.1-5.81,11.13,11.13,0,0,1,3.28-4.45,32.51,32.51,0,0,1,9.71-5.93,1.5,1.5,0,0,0,.93-.88c1.73-4.42,3.49-8.83,5.24-13.24.41-1,.85-2,1.23-3a1.13,1.13,0,0,0,0-.81,27.73,27.73,0,0,1-2.32-7.37,13,13,0,0,1,1.31-8.6,8.6,8.6,0,0,1,1.35-1.82,3.19,3.19,0,0,1,5,.32,7.47,7.47,0,0,1,1.47,3.75C63.66,89.27,63.69,90.06,63.75,90.85Zm2.51,24.33-.28-.25a33.1,33.1,0,0,1-6.6-7.84,4.08,4.08,0,0,0-.25-.33c-.07.12-.15.24-.21.37q-2.1,5.39-4.19,10.79a2.11,2.11,0,0,0-.09.36,2.41,2.41,0,0,0,.37-.07l5.47-1.49c1.79-.48,3.59-.93,5.39-1.4A3.86,3.86,0,0,0,66.26,115.18ZM40.45,132.81a3.66,3.66,0,0,0,.64-.23,11,11,0,0,0,1.32-.91,22.38,22.38,0,0,0,4.83-6.31.5.5,0,0,0,0-.21.73.73,0,0,0-.21.06,22.11,22.11,0,0,0-6.3,4.86,8.41,8.41,0,0,0-1.12,1.9C39.47,132.4,39.84,132.81,40.45,132.81ZM57.76,92.12a18.89,18.89,0,0,0,.9,5.27c0,.1.11.18.16.28,0-.1.11-.18.15-.28a22.61,22.61,0,0,0,1.17-5.92,9.13,9.13,0,0,0-.51-3.91,2,2,0,0,0-.22-.37,2.42,2.42,0,0,0-.32.32A8.31,8.31,0,0,0,57.76,92.12Zm25.83,26.67,2.15-.26a.72.72,0,0,0,.2-.09.62.62,0,0,0-.14-.18,15.44,15.44,0,0,0-2.15-1.08,16.86,16.86,0,0,0-7.86-.43,1.13,1.13,0,0,0-.24.08,1,1,0,0,0,.2.12A21.57,21.57,0,0,0,83.59,118.79Z"/></g></g></svg>