<svg xmlns="http://www.w3.org/2000/svg" xmlns:xlink="http://www.w3.org/1999/xlink" viewBox="0 0 126.27 167.14"><defs><style>.cls-1{fill:url(#Dégradé_sans_nom_53);}.cls-2{fill:#fff;}.cls-3{fill:#383838;}.cls-4{opacity:0.1;fill:url(#Dégradé_sans_nom_53-2);}.cls-5{opacity:0.2;fill:url(#Dégradé_sans_nom_53-3);}.cls-6{fill:url(#Dégradé_sans_nom_53-4);}.cls-7{fill:url(#Dégradé_sans_nom_53-5);}</style><linearGradient id="Dégradé_sans_nom_53" x1="63.14" y1="167.14" x2="63.14" gradientUnits="userSpaceOnUse"><stop offset="0.2" stop-color="#9e70f5"/><stop offset="1" stop-color="#b187fa"/></linearGradient><linearGradient id="Dégradé_sans_nom_53-2" x1="63.14" y1="134.84" x2="63.14" y2="84.88" xlink:href="#Dégradé_sans_nom_53"/><linearGradient id="Dégradé_sans_nom_53-3" x1="63.14" y1="119.99" x2="63.14" y2="89.91" xlink:href="#Dégradé_sans_nom_53"/><linearGradient id="Dégradé_sans_nom_53-4" x1="75.76" y1="107.3" x2="75.76" y2="97.15" xlink:href="#Dégradé_sans_nom_53"/><linearGradient id="Dégradé_sans_nom_53-5" x1="63.14" y1="130.19" x2="63.14" y2="102.36" xlink:href="#Dégradé_sans_nom_53"/></defs><title>Fichier-image</title><g id="Calque_2" data-name="Calque 2"><g id="Calque_1-2" data-name="Calque 1"><path class="cls-1" d="M112.75,42.34l-30-29.63L74.35,4.47A15.53,15.53,0,0,0,63.46,0H27.53A27.53,27.53,0,0,0,0,27.53V139.6a27.54,27.54,0,0,0,27.53,27.54H98.74a27.54,27.54,0,0,0,27.53-27.53v-78a14.15,14.15,0,0,0-4.22-10.08Z"/><path class="cls-2" d="M105.73,55.24,77,55.13a6.84,6.84,0,0,1-6.8-6.82l-.06-28.66Z"/><path class="cls-3" d="M112.75,138.51a15.12,15.12,0,0,1-15.12,15.12h-69a15.12,15.12,0,0,1-15.12-15.12V27.84A15.12,15.12,0,0,1,28.66,12.71h27.7v37.2a19,19,0,0,0,19,19h37.43Z"/><path class="cls-2" d="M112.74,69.27v69.64A15.13,15.13,0,0,1,97.61,154h-69a15.12,15.12,0,0,1-15.11-15.12V28.24A15.13,15.13,0,0,1,28.64,13.11H56.35v37.2a19,19,0,0,0,19,19Z"/><path class="cls-4" d="M83.52,84.88H42.75a9.89,9.89,0,0,0-9.89,9.89V125a9.88,9.88,0,0,0,9.89,9.88H83.52A9.88,9.88,0,0,0,93.41,125V94.77A9.89,9.89,0,0,0,83.52,84.88Zm4.75,40.84a4.47,4.47,0,0,1-4.47,4.47H42.47A4.47,4.47,0,0,1,38,125.72V94.38a4.47,4.47,0,0,1,4.47-4.47H83.8a4.47,4.47,0,0,1,4.47,4.47Z"/><path class="cls-5" d="M83.8,89.91H42.47A4.47,4.47,0,0,0,38,94.38v20.39L47.15,104a4.74,4.74,0,0,1,7.13,0c3.79,3.72,11.65,13.51,11.65,13.51s2.13,2.87,5,0l4.4-4.39s3.19-2.67,6.05,0c1.81,1.67,4.88,4.78,6.9,6.85V94.38A4.47,4.47,0,0,0,83.8,89.91Zm-8,17.39a5.08,5.08,0,1,1,5.07-5.07A5.08,5.08,0,0,1,75.76,107.3Z"/><path class="cls-6" d="M80.83,102.23a5.08,5.08,0,1,1-5.07-5.08A5.07,5.07,0,0,1,80.83,102.23Z"/><path class="cls-7" d="M88.27,120v5.73a4.47,4.47,0,0,1-4.47,4.47H42.47A4.47,4.47,0,0,1,38,125.72v-11L47.15,104a4.74,4.74,0,0,1,7.13,0c3.79,3.72,11.65,13.51,11.65,13.51s2.13,2.87,5,0l4.4-4.39s3.19-2.67,6.05,0C83.18,114.81,86.25,117.92,88.27,120Z"/></g></g></svg>