<?xml version="1.0" encoding="utf-8"?>
<svg xmlns="http://www.w3.org/2000/svg" xmlns:xlink="http://www.w3.org/1999/xlink" style="margin: auto; background: none; display: block; shape-rendering: auto;" width="101px" height="101px" viewBox="0 0 100 100" preserveAspectRatio="xMidYMid">
<g transform="rotate(0 50 50)">
  <rect x="47.5" y="19.5" rx="2.5" ry="3.38" width="5" height="13" fill="#45535b">
    <animate attributeName="opacity" values="1;0" keyTimes="0;1" dur="0.5952380952380952s" begin="-0.5555555555555556s" repeatCount="indefinite"></animate>
  </rect>
</g><g transform="rotate(24 50 50)">
  <rect x="47.5" y="19.5" rx="2.5" ry="3.38" width="5" height="13" fill="#45535b">
    <animate attributeName="opacity" values="1;0" keyTimes="0;1" dur="0.5952380952380952s" begin="-0.5158730158730159s" repeatCount="indefinite"></animate>
  </rect>
</g><g transform="rotate(48 50 50)">
  <rect x="47.5" y="19.5" rx="2.5" ry="3.38" width="5" height="13" fill="#45535b">
    <animate attributeName="opacity" values="1;0" keyTimes="0;1" dur="0.5952380952380952s" begin="-0.4761904761904762s" repeatCount="indefinite"></animate>
  </rect>
</g><g transform="rotate(72 50 50)">
  <rect x="47.5" y="19.5" rx="2.5" ry="3.38" width="5" height="13" fill="#45535b">
    <animate attributeName="opacity" values="1;0" keyTimes="0;1" dur="0.5952380952380952s" begin="-0.4365079365079365s" repeatCount="indefinite"></animate>
  </rect>
</g><g transform="rotate(96 50 50)">
  <rect x="47.5" y="19.5" rx="2.5" ry="3.38" width="5" height="13" fill="#45535b">
    <animate attributeName="opacity" values="1;0" keyTimes="0;1" dur="0.5952380952380952s" begin="-0.39682539682539686s" repeatCount="indefinite"></animate>
  </rect>
</g><g transform="rotate(120 50 50)">
  <rect x="47.5" y="19.5" rx="2.5" ry="3.38" width="5" height="13" fill="#45535b">
    <animate attributeName="opacity" values="1;0" keyTimes="0;1" dur="0.5952380952380952s" begin="-0.35714285714285715s" repeatCount="indefinite"></animate>
  </rect>
</g><g transform="rotate(144 50 50)">
  <rect x="47.5" y="19.5" rx="2.5" ry="3.38" width="5" height="13" fill="#45535b">
    <animate attributeName="opacity" values="1;0" keyTimes="0;1" dur="0.5952380952380952s" begin="-0.31746031746031744s" repeatCount="indefinite"></animate>
  </rect>
</g><g transform="rotate(168 50 50)">
  <rect x="47.5" y="19.5" rx="2.5" ry="3.38" width="5" height="13" fill="#45535b">
    <animate attributeName="opacity" values="1;0" keyTimes="0;1" dur="0.5952380952380952s" begin="-0.2777777777777778s" repeatCount="indefinite"></animate>
  </rect>
</g><g transform="rotate(192 50 50)">
  <rect x="47.5" y="19.5" rx="2.5" ry="3.38" width="5" height="13" fill="#45535b">
    <animate attributeName="opacity" values="1;0" keyTimes="0;1" dur="0.5952380952380952s" begin="-0.2380952380952381s" repeatCount="indefinite"></animate>
  </rect>
</g><g transform="rotate(216 50 50)">
  <rect x="47.5" y="19.5" rx="2.5" ry="3.38" width="5" height="13" fill="#45535b">
    <animate attributeName="opacity" values="1;0" keyTimes="0;1" dur="0.5952380952380952s" begin="-0.19841269841269843s" repeatCount="indefinite"></animate>
  </rect>
</g><g transform="rotate(240 50 50)">
  <rect x="47.5" y="19.5" rx="2.5" ry="3.38" width="5" height="13" fill="#45535b">
    <animate attributeName="opacity" values="1;0" keyTimes="0;1" dur="0.5952380952380952s" begin="-0.15873015873015872s" repeatCount="indefinite"></animate>
  </rect>
</g><g transform="rotate(264 50 50)">
  <rect x="47.5" y="19.5" rx="2.5" ry="3.38" width="5" height="13" fill="#45535b">
    <animate attributeName="opacity" values="1;0" keyTimes="0;1" dur="0.5952380952380952s" begin="-0.11904761904761905s" repeatCount="indefinite"></animate>
  </rect>
</g><g transform="rotate(288 50 50)">
  <rect x="47.5" y="19.5" rx="2.5" ry="3.38" width="5" height="13" fill="#45535b">
    <animate attributeName="opacity" values="1;0" keyTimes="0;1" dur="0.5952380952380952s" begin="-0.07936507936507936s" repeatCount="indefinite"></animate>
  </rect>
</g><g transform="rotate(312 50 50)">
  <rect x="47.5" y="19.5" rx="2.5" ry="3.38" width="5" height="13" fill="#45535b">
    <animate attributeName="opacity" values="1;0" keyTimes="0;1" dur="0.5952380952380952s" begin="-0.03968253968253968s" repeatCount="indefinite"></animate>
  </rect>
</g><g transform="rotate(336 50 50)">
  <rect x="47.5" y="19.5" rx="2.5" ry="3.38" width="5" height="13" fill="#45535b">
    <animate attributeName="opacity" values="1;0" keyTimes="0;1" dur="0.5952380952380952s" begin="0s" repeatCount="indefinite"></animate>
  </rect>
</g>
<!-- [ldio] generated by https://loading.io/ --></svg>