<?xml version="1.0" encoding="UTF-8"?>
<svg id="Calque_2" data-name="Calque 2" xmlns="http://www.w3.org/2000/svg" viewBox="0 0 37 39.11">
  <defs>
    <style>
      .cls-1 {
        fill: #f87373;
      }

      .cls-1, .cls-2, .cls-3 {
        stroke-width: 0px;
      }

      .cls-2 {
        fill: #fff;
      }

      .cls-3 {
        fill: #f41616;
      }
    </style>
  </defs>
  <g id="Calque_1-2" data-name="Calque 1">
    <g>
      <path class="cls-3" d="m32.54,9.8v25.71c0,1.99-1.62,3.61-3.61,3.61H3.61c-2,0-3.61-1.62-3.61-3.61V3.61C0,1.62,1.62,0,3.61,0h19.13v9.8h9.8Z"/>
      <path class="cls-1" d="m22.75,0v9.8h9.8C29.28,6.53,26.01,3.26,22.75,0"/>
      <path class="cls-2" d="m23.14,16.71l3.33,3.33c.27.27.7.27.97,0,.27-.27.27-.7,0-.97l-3.33-3.33c-.27-.27-.7-.27-.97,0-.27.27-.27.7,0,.97"/>
      <path class="cls-2" d="m26.47,15.74l-3.33,3.33c-.27.27-.27.7,0,.97.27.27.7.27.97,0l3.33-3.33c.27-.27.27-.7,0-.97-.27-.27-.7-.27-.97,0"/>
      <path class="cls-2" d="m36.36,25.23s-1.78-.47-4.17-.47c-2.04,0-4.57.33-6.94,1.61-1.18.64-2.32,1.52-3.3,2.7-.99,1.18-1.82,2.66-2.41,4.48-.15.45.1.93.55,1.08.45.15.93-.1,1.08-.55.53-1.64,1.26-2.91,2.1-3.92,1.26-1.5,2.77-2.42,4.35-2.97,1.57-.55,3.19-.72,4.58-.72,1.09,0,2.03.1,2.7.21.33.05.6.1.78.14.09.02.16.03.2.05h.05s0,.01,0,.01h0c.46.12.93-.15,1.05-.61.12-.46-.15-.93-.61-1.05h0Z"/>
    </g>
  </g>
</svg>